<svg version="1.1" id="Layer_1" xmlns="http://www.w3.org/2000/svg" xmlns:xlink="http://www.w3.org/1999/xlink" x="0px" y="0px"
	 width="100%" viewBox="0 0 412 492" enable-background="new 0 0 412 492" xml:space="preserve">
<path fill="#FFFFFF" opacity="1.000000" stroke="none" 
	d="
M1.000000,190.000000 
	C1.000000,126.666687 1.000000,63.833370 1.000000,1.000042 
	C138.333267,1.000028 275.666534,1.000028 412.999878,1.000014 
	C412.999908,164.999893 412.999908,328.999786 412.999939,492.999756 
	C275.666809,492.999817 138.333633,492.999817 1.000224,492.999908 
	C1.000000,392.166656 1.000000,291.333344 1.000000,190.000000 
M109.676300,460.787445 
	C110.124077,460.776093 110.571854,460.764740 111.926468,460.995148 
	C123.002831,460.883240 134.079193,460.771362 145.953552,460.739960 
	C147.292374,460.738922 148.631210,460.737854 150.876358,460.986115 
	C155.913864,460.917297 160.951355,460.848480 166.656311,460.822601 
	C167.102142,460.803772 167.547958,460.784943 168.910004,460.978790 
	C203.593399,460.928253 238.276810,460.877716 273.893005,460.980743 
	C290.917267,460.935455 307.941528,460.890167 325.900421,460.981171 
	C336.981506,460.981171 348.062622,460.981171 359.143707,460.981171 
	C359.143524,460.687714 359.143341,460.394226 359.143158,460.100769 
	C347.753998,460.100769 336.364807,460.100769 324.045074,460.012939 
	C307.020782,460.043610 289.996460,460.074249 272.043213,460.003571 
	C238.386063,459.992462 204.728897,459.981384 170.887115,459.407166 
	C170.340546,459.216858 169.793991,459.026550 168.685257,458.319489 
	C165.887527,457.669312 163.089783,457.019135 160.233170,456.355286 
	C160.395233,454.240356 160.557999,452.116302 161.615723,449.936432 
	C165.524414,450.062164 163.987488,446.975098 164.071701,445.294037 
	C165.159592,423.577515 166.097504,401.853485 167.902176,380.126892 
	C180.544617,380.343689 193.186340,380.665924 205.829681,380.754150 
	C228.475784,380.912231 251.123383,381.050629 273.769348,380.957184 
	C286.061615,380.906464 295.096649,372.844971 296.211456,360.685211 
	C296.968994,352.422363 296.727722,344.067963 297.811493,335.913391 
	C308.389038,337.475037 318.317566,335.403625 327.675903,330.427063 
	C337.075256,325.428741 345.316162,319.105042 350.358673,309.415619 
	C352.180420,305.915009 352.576019,301.702972 349.434143,299.328796 
	C346.885315,297.402802 342.923981,296.800598 339.553528,296.689331 
	C337.095123,296.608154 334.584503,298.297577 332.086853,299.168182 
	C328.912354,300.274689 325.354431,300.036102 324.692413,296.646667 
	C324.284302,294.557220 326.424164,291.284729 328.347961,289.608093 
	C330.491699,287.739838 333.853973,287.356232 336.391052,285.834808 
	C341.635345,282.689880 346.940033,279.535370 351.672638,275.708130 
	C353.300232,274.391937 354.309479,270.770416 353.725281,268.742493 
	C353.249329,267.090515 350.065826,266.031494 347.909363,265.120361 
	C346.599335,264.566833 344.803650,265.152100 343.504120,264.586761 
	C341.530975,263.728394 339.417725,262.603302 338.183929,260.971527 
	C337.782806,260.441010 339.733459,257.772003 340.977325,256.420654 
	C346.240234,250.702972 351.991211,245.395630 356.864014,239.372192 
	C359.849609,235.681534 360.157501,230.987411 356.398834,227.069717 
	C353.228973,223.765701 347.822021,222.621933 343.571533,225.710068 
	C339.428345,228.720230 335.969635,232.909821 332.890869,237.083557 
	C329.560425,241.598480 327.169434,246.796295 324.032867,251.470917 
	C323.158264,252.774429 321.094971,253.280380 319.576996,254.152191 
	C318.856781,252.590027 317.706238,251.082031 317.501434,249.454987 
	C316.997437,245.451126 315.237457,243.314499 310.464142,243.709412 
	C310.309418,243.804779 310.154694,243.900131 309.302002,244.074463 
	C303.761688,246.827087 303.377899,252.089493 303.209900,257.229279 
	C302.977539,264.339050 303.265015,271.465179 303.066315,278.576904 
	C302.963196,282.267578 301.986298,285.656616 296.954651,284.166290 
	C297.094330,242.400055 297.212738,200.633713 297.390594,158.867645 
	C297.428833,149.892853 297.681976,140.918976 298.578308,131.807755 
	C314.201843,126.222031 329.852203,120.709663 345.437073,115.018105 
	C352.682434,112.372124 354.310760,108.750557 351.908997,101.423553 
	C347.777588,88.819740 343.598633,76.231384 339.400604,63.649559 
	C335.971985,53.373653 334.249512,52.529980 323.693634,55.712852 
	C323.438416,55.789810 323.088135,55.551483 322.636780,55.416817 
	C321.728424,53.017300 320.847961,50.512863 319.840607,48.060551 
	C315.060120,36.423130 303.583954,30.663425 291.867065,33.984497 
	C280.570618,37.186394 273.371246,49.412937 275.779449,61.454594 
	C276.452728,64.821144 277.393921,68.134109 277.974518,70.502090 
	C274.603943,73.339607 271.792969,75.706039 268.056488,78.220947 
	C237.258209,78.144302 206.459976,78.045311 175.661652,77.999924 
	C158.926620,77.975266 150.123169,86.780624 150.061661,103.508896 
	C149.927582,139.967499 149.804947,176.426132 148.835114,212.929871 
	C144.578323,212.619812 140.321548,212.309769 136.019623,211.226624 
	C136.471283,210.086395 136.641312,208.230743 137.421005,207.923828 
	C141.959747,206.137115 142.266953,202.527649 142.117783,198.506271 
	C142.000732,195.350571 142.069351,192.187958 142.363342,188.406479 
	C146.996063,182.205704 147.141159,177.505432 142.404648,175.314804 
	C136.989456,172.810287 131.251740,171.800903 125.577118,174.669617 
	C119.855919,177.561905 115.971977,182.343338 113.956352,188.245850 
	C112.203613,193.378525 112.498444,199.442230 109.954376,204.019592 
	C105.942154,211.238480 101.031013,217.758148 98.133224,225.809738 
	C96.379562,230.682388 93.201736,235.012711 93.090599,241.198868 
	C91.185272,248.742783 89.279945,256.286682 87.238647,264.666260 
	C82.304794,285.677551 77.370949,306.688843 72.535683,327.280273 
	C72.319618,327.348877 73.043571,327.119019 73.999146,326.815613 
	C73.999146,328.391876 73.999146,329.857361 73.999146,331.737732 
	C75.072823,330.935394 75.805893,330.387604 76.710182,329.711853 
	C76.920425,331.292755 77.116821,332.769501 77.313217,334.246246 
	C77.560448,334.287476 77.807678,334.328705 78.054909,334.369934 
	C79.076515,331.199677 80.098114,328.029388 81.119720,324.859100 
	C81.425629,324.966217 81.731537,325.073303 82.037453,325.180389 
	C81.805618,327.652130 81.573792,330.123840 81.341957,332.595551 
	C81.731544,332.694946 82.121132,332.794342 82.510719,332.893738 
	C83.878578,329.243439 85.246429,325.593140 86.683510,321.758118 
	C88.859390,323.543060 90.463112,324.858612 92.066833,326.174194 
	C89.188782,319.852234 88.724701,313.856873 90.295395,307.558624 
	C93.585114,294.367371 96.806198,281.159058 100.664680,267.600098 
	C102.123108,263.028778 103.581543,258.457428 105.807449,253.855850 
	C107.545860,254.252670 109.284264,254.649490 111.063072,255.918427 
	C112.251518,260.745636 109.509628,264.390717 107.660873,268.458832 
	C105.388794,273.458527 103.945084,278.834686 101.939232,284.764832 
	C101.931664,285.500732 101.924095,286.236603 101.506920,287.657440 
	C100.966057,294.101105 99.880386,300.553589 99.985046,306.986755 
	C100.317413,327.413940 101.197662,347.831512 101.672623,368.257294 
	C102.298401,395.168671 102.740578,422.084290 103.096176,449.771881 
	C103.779877,451.176910 104.463585,452.581909 105.232529,454.811890 
	C105.233391,456.193207 105.234253,457.574554 104.955711,459.329285 
	C104.955711,459.329285 104.846901,459.783325 103.935890,459.896362 
	C93.966850,459.971588 83.997810,460.046783 73.094841,459.984009 
	C63.679466,459.984009 54.264091,459.984009 44.848717,459.984009 
	C44.849430,460.265839 44.850140,460.547668 44.850853,460.829498 
	C54.579712,460.829498 64.308578,460.829498 74.965424,460.923401 
	C84.986534,460.890869 95.007652,460.858337 105.825523,460.955902 
	C106.886459,460.879913 107.947395,460.803894 109.676300,460.787445 
M71.634857,185.587097 
	C71.215797,184.354507 70.796738,183.121933 70.377678,181.889343 
	C70.007454,181.926315 69.637230,181.963303 69.267006,182.000275 
	C68.907143,184.491196 68.547287,186.982117 68.167976,189.607635 
	C66.099396,189.832367 64.147026,190.044464 61.676998,190.312790 
	C61.501858,193.487198 61.128006,196.601959 61.216827,199.703461 
	C61.302303,202.688370 63.147190,204.244873 66.177841,203.912125 
	C69.755692,203.519287 73.313507,202.943970 76.543427,202.494583 
	C78.340546,195.877670 76.912994,190.544617 71.634857,185.587097 
M77.971619,194.653717 
	C77.971619,197.288071 77.971619,199.922424 77.971619,202.594818 
	C81.981438,202.217407 82.919739,198.845474 81.876617,190.200211 
	C78.682190,189.287704 77.582382,190.692123 77.971619,194.653717 
z"/>
<path fill="#273339" opacity="1.000000" stroke="none" 
	d="
M167.073318,380.131348 
	C166.097504,401.853485 165.159592,423.577515 164.071701,445.294037 
	C163.987488,446.975098 165.524414,450.062164 160.729858,449.925415 
	C154.629547,449.948151 149.415085,449.981903 143.742126,449.972809 
	C139.034988,450.627563 139.852951,447.512329 139.924042,445.249573 
	C140.659302,421.844666 141.139481,398.424347 142.409103,375.047333 
	C142.890137,366.190399 141.513077,358.031982 138.697769,349.769928 
	C134.115112,336.321198 130.003006,322.712128 125.236435,309.168823 
	C124.185905,310.498627 123.142395,311.809235 123.078331,313.166016 
	C122.860558,317.778564 122.988548,322.407379 122.692703,327.309937 
	C122.263840,330.731903 122.126785,333.873901 121.988327,337.343811 
	C121.988014,338.109009 121.989120,338.546295 121.989365,339.453613 
	C121.993813,345.947540 121.999130,351.971405 122.002579,358.462036 
	C122.331596,363.952271 122.662498,368.975739 122.994644,374.467590 
	C122.994011,380.962952 122.992134,386.989929 122.988541,393.430725 
	C122.987923,395.224030 122.989014,396.603516 122.989326,398.452759 
	C122.993736,404.613586 122.998917,410.304626 123.002197,416.464447 
	C123.333382,427.621307 123.666458,438.309448 123.531601,449.015930 
	C117.070442,449.031219 111.077240,449.028168 104.780350,449.018188 
	C104.071671,449.006836 103.666679,449.002472 103.261688,448.998108 
	C102.740578,422.084290 102.298401,395.168671 101.672623,368.257294 
	C101.197662,347.831512 100.317413,327.413940 99.985046,306.986755 
	C99.880386,300.553589 100.966057,294.101105 102.131721,287.372131 
	C110.601006,286.974884 118.482422,287.287079 126.277580,286.608551 
	C131.895798,286.119476 137.399155,284.311005 143.406738,283.043091 
	C145.060226,282.857605 146.260727,282.720062 147.644562,282.830048 
	C147.926453,283.684662 148.025040,284.291718 148.063538,285.240173 
	C148.388580,286.641327 148.773666,287.701111 149.210968,289.140686 
	C150.188904,292.814941 150.966232,296.161682 152.101501,299.382294 
	C152.689850,301.051331 153.912094,302.496887 154.921204,304.484314 
	C157.144653,315.395905 159.357346,325.854309 161.427994,336.340698 
	C163.619156,347.437531 169.114746,357.974792 167.095398,370.251556 
	C167.054688,373.857361 167.064011,376.994354 167.073318,380.131348 
M159.997452,348.599182 
	C160.082520,349.129486 160.167587,349.659790 160.252655,350.190094 
	C160.465546,350.121307 160.678421,350.052551 160.891312,349.983795 
	C160.594406,349.322479 160.297516,348.661194 160.000687,347.267639 
	C159.667328,346.178345 159.333969,345.089050 159.000671,343.267517 
	C158.667313,342.178253 158.333954,341.089020 158.000687,339.267426 
	C157.667328,338.177887 157.333969,337.088318 157.000641,335.266724 
	C156.667297,334.177399 156.333954,333.088104 156.000641,331.266724 
	C155.667297,330.177399 155.333954,329.088104 155.000641,327.266724 
	C154.667297,326.177399 154.333954,325.088104 154.000641,323.266724 
	C153.667297,322.177399 153.333954,321.088104 153.000641,319.266724 
	C152.667297,318.177399 152.333954,317.088104 152.000641,315.266846 
	C151.667297,314.177887 151.333954,313.088959 150.998291,311.404755 
	C150.914017,310.877350 150.829727,310.349945 150.745453,309.822540 
	C150.534012,309.891022 150.322586,309.959503 150.111145,310.027954 
	C150.407227,310.685303 150.703293,311.342651 150.996475,312.732361 
	C151.330780,313.821655 151.665085,314.910950 151.996414,316.732574 
	C152.330734,317.821808 152.665070,318.911011 152.996414,320.732574 
	C153.330734,321.821808 153.665070,322.911011 153.996414,324.732574 
	C154.330734,325.821808 154.665070,326.911011 154.996414,328.732574 
	C155.330734,329.821808 155.665054,330.911011 155.996414,332.732574 
	C156.330750,333.821808 156.665070,334.911011 156.996414,336.732666 
	C157.330750,337.822174 157.665070,338.911713 157.996490,340.733368 
	C158.330795,341.822662 158.665085,342.911926 158.996490,344.733337 
	C159.330795,345.822632 159.665100,346.911926 159.997452,348.599182 
M162.996140,372.365173 
	C162.996140,374.539001 162.996140,376.712830 162.996140,378.886658 
	C163.230591,378.876617 163.465027,378.866608 163.699478,378.856567 
	C163.699478,372.954224 163.699478,367.051880 163.699478,361.149536 
	C163.465103,361.147125 163.230713,361.144684 162.996338,361.142273 
	C162.996338,364.568573 162.996338,367.994904 162.996140,372.365173 
M162.946701,385.639099 
	C162.855118,385.501343 162.780899,385.345367 162.664078,385.234131 
	C162.611938,385.184479 162.474060,385.224915 162.375107,385.224457 
	C162.375107,391.057068 162.375107,396.889679 162.375107,402.722260 
	C162.581924,402.719391 162.788727,402.716522 162.995544,402.713654 
	C162.995544,397.279907 162.995544,391.846191 162.946701,385.639099 
M161.998779,417.604156 
	C161.998779,415.446594 161.998779,413.289062 161.998779,411.131500 
	C161.769714,411.142212 161.540649,411.152893 161.311584,411.163574 
	C161.311584,416.384918 161.311584,421.606232 161.311584,426.827545 
	C161.540649,426.826538 161.769714,426.825562 161.998779,426.824585 
	C161.998779,424.061432 161.998779,421.298279 161.998779,417.604156 
M161.924042,353.485596 
	C161.777512,353.237762 161.630966,352.989960 161.484421,352.742126 
	C161.349075,352.997559 161.052567,353.313965 161.120132,353.492645 
	C161.200226,353.704437 161.594040,353.797577 161.924042,353.485596 
M162.824661,357.982025 
	C162.727936,357.570221 162.631226,357.158386 162.534500,356.746552 
	C162.412643,356.837433 162.177582,356.943970 162.187637,357.016571 
	C162.245682,357.435059 162.361664,357.845490 162.824661,357.982025 
M149.920471,306.479950 
	C149.775635,306.233826 149.630798,305.987671 149.485977,305.741547 
	C149.351913,305.995209 149.058701,306.308044 149.125290,306.487091 
	C149.203140,306.696533 149.594650,306.789368 149.920471,306.479950 
z"/>
<path fill="#495E67" opacity="1.000000" stroke="none" 
	d="
M167.487747,380.129120 
	C167.064011,376.994354 167.054688,373.857361 167.543625,370.366241 
	C169.197571,370.148682 170.352554,370.398224 171.509048,370.405396 
	C205.479752,370.615326 239.450470,370.868225 273.421570,370.949432 
	C283.489807,370.973511 289.751923,364.275665 289.801025,353.578735 
	C290.181702,270.644867 290.514771,187.710785 290.803009,104.776550 
	C290.841003,93.844032 284.415131,87.551590 273.393250,87.385658 
	C268.064636,87.305428 262.733521,87.337296 257.404053,87.380974 
	C251.792969,87.426964 250.409470,88.791985 250.078369,94.425209 
	C249.754410,99.936935 248.609985,101.047249 243.062317,101.040062 
	C231.737061,101.025398 220.411804,100.985542 209.086639,100.934479 
	C202.796158,100.906113 201.505325,99.772385 201.311523,93.417908 
	C201.179031,89.073776 199.282455,87.019196 194.890396,87.055595 
	C187.396500,87.117706 179.899643,86.920738 172.407242,87.038078 
	C162.738083,87.189507 156.264130,93.728485 156.029068,103.463554 
	C155.916534,108.124458 156.012100,112.790306 156.006973,117.453903 
	C155.971680,149.594528 155.934662,181.735153 155.510284,213.845520 
	C153.307449,213.505112 151.492538,213.194946 149.677643,212.884766 
	C149.804947,176.426132 149.927582,139.967499 150.061661,103.508896 
	C150.123169,86.780624 158.926620,77.975266 175.661652,77.999924 
	C206.459976,78.045311 237.258209,78.144302 268.835632,78.404984 
	C272.084198,78.707169 274.552612,78.854599 277.023193,78.938179 
	C285.800659,79.235123 295.702850,86.489151 296.653015,95.116455 
	C297.784241,105.387955 297.237732,115.842941 297.454010,126.217674 
	C297.493835,128.128510 297.704407,130.035767 297.836151,131.944687 
	C297.681976,140.918976 297.428833,149.892853 297.390594,158.867645 
	C297.212738,200.633713 297.094330,242.400055 296.971069,285.097565 
	C297.002411,296.019226 297.017365,306.009613 297.009460,316.333099 
	C297.003204,317.110779 297.019745,317.555359 297.145813,318.371765 
	C297.147919,324.413879 297.040527,330.084198 296.933105,335.754486 
	C296.727722,344.067963 296.968994,352.422363 296.211456,360.685211 
	C295.096649,372.844971 286.061615,380.906464 273.769348,380.957184 
	C251.123383,381.050629 228.475784,380.912231 205.829681,380.754150 
	C193.186340,380.665924 180.544617,380.343689 167.487747,380.129120 
z"/>
<path fill="#4DAF51" opacity="1.000000" stroke="none" 
	d="
M297.032288,316.000000 
	C297.017365,306.009613 297.002411,296.019226 297.011566,285.571960 
	C301.986298,285.656616 302.963196,282.267578 303.066315,278.576904 
	C303.265015,271.465179 302.977539,264.339050 303.209900,257.229279 
	C303.377899,252.089493 303.761688,246.827087 309.651062,244.420715 
	C310.143829,246.025986 310.287537,247.285004 310.431274,248.544022 
	C310.782104,248.499969 311.132935,248.455902 311.483765,248.411850 
	C311.321899,246.880981 311.160034,245.350098 310.998169,243.819229 
	C315.237457,243.314499 316.997437,245.451126 317.501434,249.454987 
	C317.706238,251.082031 318.856781,252.590027 319.576996,254.152191 
	C321.094971,253.280380 323.158264,252.774429 324.032867,251.470917 
	C327.169434,246.796295 329.560425,241.598480 332.890869,237.083557 
	C335.969635,232.909821 339.428345,228.720230 343.571533,225.710068 
	C347.822021,222.621933 353.228973,223.765701 356.398834,227.069717 
	C360.157501,230.987411 359.849609,235.681534 356.864014,239.372192 
	C351.991211,245.395630 346.240234,250.702972 340.977325,256.420654 
	C339.733459,257.772003 337.782806,260.441010 338.183929,260.971527 
	C339.417725,262.603302 341.530975,263.728394 343.504120,264.586761 
	C344.803650,265.152100 346.599335,264.566833 347.909363,265.120361 
	C350.065826,266.031494 353.249329,267.090515 353.725281,268.742493 
	C354.309479,270.770416 353.300232,274.391937 351.672638,275.708130 
	C346.940033,279.535370 341.635345,282.689880 336.391052,285.834808 
	C333.853973,287.356232 330.491699,287.739838 328.347961,289.608093 
	C326.424164,291.284729 324.284302,294.557220 324.692413,296.646667 
	C325.354431,300.036102 328.912354,300.274689 332.086853,299.168182 
	C334.584503,298.297577 337.095123,296.608154 339.553528,296.689331 
	C342.923981,296.800598 346.885315,297.402802 349.434143,299.328796 
	C352.576019,301.702972 352.180420,305.915009 350.358673,309.415619 
	C345.316162,319.105042 337.075256,325.428741 327.675903,330.427063 
	C318.317566,335.403625 308.389038,337.475037 297.372314,335.833923 
	C297.040527,330.084198 297.147919,324.413879 297.487213,318.365906 
	C298.316986,317.625183 298.914856,317.262115 299.512756,316.899048 
	C298.685944,316.599365 297.859100,316.299683 297.032288,316.000000 
M337.687042,243.085678 
	C337.809906,243.070557 337.932800,243.055435 338.315979,242.898590 
	C338.196503,242.913010 338.076996,242.927429 337.687042,243.085678 
M316.284698,275.306915 
	C315.762726,275.433075 315.240723,275.559265 314.718750,275.685425 
	C315.245697,276.217255 315.772644,276.749084 316.299591,277.280914 
	C316.431580,276.761230 316.563568,276.241547 316.284698,275.306915 
M313.972382,271.786346 
	C313.855988,272.331177 313.739594,272.875977 313.623199,273.420776 
	C313.911987,273.415924 314.449341,273.435394 314.452545,273.402649 
	C314.507874,272.837036 314.497375,272.265045 313.972382,271.786346 
M338.608917,271.797668 
	C338.214386,271.793457 337.819885,271.789276 337.425354,271.785095 
	C337.423828,271.948822 337.411346,272.254791 337.422363,272.255646 
	C337.814941,272.285919 338.209747,272.287628 338.608917,271.797668 
M345.296387,270.431580 
	C345.010681,270.704315 344.724976,270.977051 344.439270,271.249817 
	C344.552368,271.368073 344.757538,271.595306 344.765259,271.588776 
	C345.066620,271.334229 345.349945,271.058411 345.296387,270.431580 
M299.431580,313.703613 
	C299.704315,313.989319 299.977081,314.275024 300.249817,314.560730 
	C300.368042,314.447632 300.595276,314.242432 300.588776,314.234741 
	C300.334229,313.933380 300.058411,313.650055 299.431580,313.703613 
M301.608917,310.797668 
	C301.214386,310.793457 300.819885,310.789276 300.425323,310.785095 
	C300.423798,310.948822 300.411285,311.254852 300.422363,311.255707 
	C300.814941,311.286011 301.209747,311.287628 301.608917,310.797668 
M304.568420,303.296387 
	C304.295685,303.010681 304.022949,302.724976 303.750183,302.439270 
	C303.631958,302.552368 303.404694,302.757568 303.411224,302.765259 
	C303.665741,303.066620 303.941589,303.349976 304.568420,303.296387 
M305.703613,298.568420 
	C305.989319,298.295685 306.275024,298.022949 306.560730,297.750183 
	C306.447632,297.631958 306.242432,297.404663 306.234711,297.411194 
	C305.933380,297.665771 305.650055,297.941589 305.703613,298.568420 
M308.608917,292.797668 
	C308.214386,292.793488 307.819885,292.789276 307.425323,292.785095 
	C307.423798,292.948822 307.411285,293.254852 307.422363,293.255707 
	C307.814941,293.285980 308.209747,293.287628 308.608917,292.797668 
M310.797668,285.391083 
	C310.793457,285.785614 310.789276,286.180115 310.785095,286.574646 
	C310.948822,286.576172 311.254791,286.588654 311.255646,286.577637 
	C311.285919,286.185059 311.287628,285.790253 310.797668,285.391083 
M331.797668,272.391083 
	C331.793457,272.785614 331.789276,273.180115 331.785095,273.574615 
	C331.948822,273.576141 332.254791,273.588623 332.255646,273.577637 
	C332.285889,273.185059 332.287598,272.790253 331.797668,272.391083 
M322.160980,264.951019 
	C322.413605,264.800201 322.795532,264.698639 322.877716,264.482910 
	C322.942749,264.312073 322.640015,264.001190 322.500610,263.752502 
	C322.360809,264.001526 322.220978,264.250519 322.160980,264.951019 
M313.839020,262.048981 
	C313.586395,262.199799 313.204437,262.301361 313.122284,262.517090 
	C313.057251,262.687927 313.359985,262.998810 313.499390,263.247498 
	C313.639191,262.998474 313.779022,262.749481 313.839020,262.048981 
M324.920746,261.479553 
	C324.775787,261.235992 324.630829,260.992462 324.485870,260.748901 
	C324.351593,261.000031 324.056213,261.315186 324.124084,261.486053 
	C324.207703,261.696594 324.593903,261.786926 324.920746,261.479553 
M352.412537,228.482971 
	C352.412537,228.482971 352.523071,228.417114 352.412537,228.482971 
M331.412689,251.482956 
	C331.412689,251.482956 331.523071,251.417236 331.412689,251.482956 
z"/>
<path fill="#4FAE52" opacity="1.000000" stroke="none" 
	d="
M298.207214,131.876221 
	C297.704407,130.035767 297.493835,128.128510 297.454010,126.217674 
	C297.237732,115.842941 297.784241,105.387955 296.653015,95.116455 
	C295.702850,86.489151 285.800659,79.235123 277.023193,78.938179 
	C274.552612,78.854599 272.084198,78.707169 269.298370,78.330750 
	C271.792969,75.706039 274.603943,73.339607 277.974518,70.502090 
	C277.393921,68.134109 276.452728,64.821144 275.779449,61.454594 
	C273.371246,49.412937 280.570618,37.186394 291.867065,33.984497 
	C303.583954,30.663425 315.060120,36.423130 319.840607,48.060551 
	C320.847961,50.512863 321.728424,53.017300 322.636780,55.416817 
	C323.088135,55.551483 323.438416,55.789810 323.693634,55.712852 
	C334.249512,52.529980 335.971985,53.373653 339.400604,63.649559 
	C343.598633,76.231384 347.777588,88.819740 351.908997,101.423553 
	C354.310760,108.750557 352.682434,112.372124 345.437073,115.018105 
	C329.852203,120.709663 314.201843,126.222031 298.207214,131.876221 
M341.028809,79.481514 
	C341.144470,79.767952 341.260132,80.054390 341.375793,80.340836 
	C341.502838,80.249878 341.629852,80.158928 341.756897,80.067986 
	C341.500458,79.714836 341.244019,79.361687 340.985718,78.328926 
	C340.653168,77.555145 340.320648,76.781364 339.985931,75.328140 
	C339.653320,74.554626 339.320709,73.781105 338.985382,72.331276 
	C338.651978,71.559189 338.318573,70.787102 337.986053,69.336525 
	C337.652405,68.562706 337.318787,67.788879 336.986084,66.335915 
	C336.653107,65.559898 336.320160,64.783882 335.979767,63.332985 
	C335.649567,62.560078 335.319366,61.787174 334.891418,60.732624 
	C334.809479,60.679527 334.727509,60.626427 334.645569,60.573341 
	C334.768433,60.711987 334.891327,60.850632 335.030212,61.664288 
	C335.358368,62.437847 335.686523,63.211411 336.023438,64.663368 
	C336.353210,65.439651 336.682983,66.215935 337.024414,67.668442 
	C337.353882,68.443016 337.683350,69.217583 338.024384,70.667763 
	C338.354004,71.440720 338.683624,72.213676 339.013000,73.664352 
	C339.346436,74.438438 339.679840,75.212532 340.012970,76.664307 
	C340.346283,77.438423 340.679626,78.212532 341.028809,79.481514 
M286.024292,66.714760 
	C286.310822,68.999672 287.180511,69.684456 289.511047,67.316223 
	C296.997833,64.723717 304.484650,62.131207 312.281586,59.431301 
	C311.032135,53.991554 309.948120,48.736904 304.852112,45.780361 
	C297.293274,41.394970 287.186737,44.288189 284.912262,56.897106 
	C284.912262,55.236935 284.912262,53.576759 284.912262,51.916588 
	C282.910278,55.690376 281.678131,59.444679 285.003052,63.668861 
	C285.339355,64.443428 285.675659,65.218002 286.024292,66.714760 
M319.754852,95.809242 
	C320.661926,88.998543 318.312714,84.307663 313.347626,83.015343 
	C307.804932,81.572685 302.542328,84.501755 300.297333,90.278847 
	C299.018524,93.569672 301.514709,99.893570 305.758545,101.393799 
	C310.076843,102.920349 311.351410,105.863449 312.276459,109.631104 
	C312.701691,111.362877 313.461121,113.012589 314.166565,114.970299 
	C316.358337,114.138634 318.282288,113.408592 320.249786,112.662041 
	C319.483185,107.052727 314.464142,102.012619 319.754852,95.809242 
M348.003387,102.269966 
	C348.003387,103.872620 348.003387,105.475273 348.003387,107.077927 
	C348.612305,106.915970 349.221222,106.754013 349.830139,106.592056 
	C349.226898,104.928993 348.623657,103.265930 348.003387,102.269966 
M347.479034,98.428627 
	C347.538116,98.183769 347.597198,97.938904 347.656281,97.694038 
	C347.509003,97.850975 347.361725,98.007904 347.479034,98.428627 
M342.250885,82.806984 
	C342.370422,82.975517 342.489990,83.144058 342.609558,83.312592 
	C342.585114,83.075249 342.560669,82.837914 342.250885,82.806984 
M343.784149,85.806755 
	C343.599640,85.869728 343.415100,85.932693 343.230591,85.995659 
	C343.417084,86.056496 343.603607,86.117332 343.784149,85.806755 
M344.237610,88.794655 
	C344.366180,88.972839 344.494751,89.151031 344.623383,89.329208 
	C344.595551,89.077675 344.567749,88.826149 344.237610,88.794655 
M345.479065,92.428627 
	C345.538147,92.183769 345.597229,91.938911 345.656281,91.694061 
	C345.509003,91.850990 345.361725,92.007927 345.479065,92.428627 
M346.223114,95.196342 
	C346.407990,95.133278 346.592865,95.070206 346.777740,95.007133 
	C346.591644,94.945969 346.405518,94.884811 346.223114,95.196342 
M347.635803,109.511909 
	C347.635803,109.511909 347.438782,109.400757 347.438782,109.400757 
	C347.438782,109.400757 347.468475,109.627350 347.635803,109.511909 
z"/>
<path fill="#273339" opacity="1.000000" stroke="none" 
	d="
M111.022675,255.046310 
	C109.284264,254.649490 107.545860,254.252670 105.218231,253.609131 
	C98.899979,250.840866 95.494453,246.290848 93.447510,240.554733 
	C93.201736,235.012711 96.379562,230.682388 98.133224,225.809738 
	C101.031013,217.758148 105.942154,211.238480 109.954376,204.019592 
	C112.498444,199.442230 112.203613,193.378525 113.956352,188.245850 
	C115.971977,182.343338 119.855919,177.561905 125.577118,174.669617 
	C131.251740,171.800903 136.989456,172.810287 142.404648,175.314804 
	C147.141159,177.505432 146.996063,182.205704 141.879105,188.851044 
	C139.768082,190.077072 138.101105,190.785645 136.523056,191.655548 
	C133.467514,193.339935 132.044098,195.196091 135.634521,198.008896 
	C136.385910,198.597565 136.598572,200.397919 136.428497,201.546463 
	C135.753860,206.102936 134.828995,210.622330 133.958038,215.590546 
	C134.750626,221.580566 135.325348,227.189682 136.482773,232.675842 
	C137.737976,238.625351 136.047714,243.439438 131.978821,247.641205 
	C126.228905,253.578873 118.855110,254.974213 111.022675,255.046310 
z"/>
<path fill="#4DAE50" opacity="1.000000" stroke="none" 
	d="
M111.042877,255.482361 
	C118.855110,254.974213 126.228905,253.578873 131.978821,247.641205 
	C136.047714,243.439438 137.737976,238.625351 136.482773,232.675842 
	C135.325348,227.189682 134.750626,221.580566 134.265656,215.469360 
	C135.096283,213.941971 135.580521,212.970840 136.064758,211.999710 
	C140.321548,212.309769 144.578323,212.619812 149.256378,212.907318 
	C151.492538,213.194946 153.307449,213.505112 155.959198,213.872070 
	C163.320221,214.929871 169.844391,215.930878 176.296600,217.380310 
	C176.514328,223.182022 176.804031,228.535294 176.860504,234.228836 
	C169.632462,234.385010 162.637650,234.200928 155.363556,234.029633 
	C154.712585,233.999588 154.340912,233.956757 153.756393,233.673370 
	C152.382751,233.641495 151.221954,233.850189 150.041611,234.504272 
	C150.001938,237.628632 149.981796,240.307632 149.720871,243.107941 
	C149.288925,243.716003 149.097763,244.202759 148.596252,244.879868 
	C143.958832,250.056702 142.678802,255.722336 143.982849,262.207214 
	C145.340561,268.959137 146.317703,275.787537 147.461243,282.582520 
	C146.260727,282.720062 145.060226,282.857605 142.944351,283.001343 
	C128.733765,283.354401 115.438538,283.701233 102.143311,284.048096 
	C103.945084,278.834686 105.388794,273.458527 107.660873,268.458832 
	C109.509628,264.390717 112.251518,260.745636 111.042877,255.482361 
z"/>
<path fill="#FEC09F" opacity="1.000000" stroke="none" 
	d="
M100.055481,267.957733 
	C96.806198,281.159058 93.585114,294.367371 90.295395,307.558624 
	C88.724701,313.856873 89.188782,319.852234 92.066833,326.174194 
	C90.463112,324.858612 88.859390,323.543060 86.683510,321.758118 
	C85.246429,325.593140 83.878578,329.243439 82.510719,332.893738 
	C82.121132,332.794342 81.731544,332.694946 81.341957,332.595551 
	C81.573792,330.123840 81.805618,327.652130 82.037453,325.180389 
	C81.731537,325.073303 81.425629,324.966217 81.119720,324.859100 
	C80.098114,328.029388 79.076515,331.199677 78.054909,334.369934 
	C77.807678,334.328705 77.560448,334.287476 77.313217,334.246246 
	C77.116821,332.769501 76.920425,331.292755 76.710182,329.711853 
	C75.805893,330.387604 75.072823,330.935394 73.999146,331.737732 
	C73.999146,329.857361 73.999146,328.391876 73.999146,326.815613 
	C73.043571,327.119019 72.319618,327.348877 72.535683,327.280273 
	C77.370949,306.688843 82.304794,285.677551 87.668236,264.272186 
	C92.083710,265.237976 96.069595,266.597839 100.055481,267.957733 
z"/>
<path fill="#4FAE52" opacity="1.000000" stroke="none" 
	d="
M100.360077,267.778931 
	C96.069595,266.597839 92.083710,265.237976 87.736221,263.854370 
	C89.279945,256.286682 91.185272,248.742783 93.269058,240.876801 
	C95.494453,246.290848 98.899979,250.840866 104.834496,253.624252 
	C103.581543,258.457428 102.123108,263.028778 100.360077,267.778931 
z"/>
<path fill="#52B055" opacity="1.000000" stroke="none" 
	d="
M71.834740,185.920685 
	C76.912994,190.544617 78.340546,195.877670 76.543427,202.494583 
	C73.313507,202.943970 69.755692,203.519287 66.177841,203.912125 
	C63.147190,204.244873 61.302303,202.688370 61.216827,199.703461 
	C61.128006,196.601959 61.501858,193.487198 61.676998,190.312790 
	C64.147026,190.044464 66.099396,189.832367 68.167976,189.607635 
	C68.547287,186.982117 68.907143,184.491196 69.267006,182.000275 
	C69.637230,181.963303 70.007454,181.926315 70.377678,181.889343 
	C70.796738,183.121933 71.215797,184.354507 71.834740,185.920685 
z"/>
<path fill="#52B055" opacity="1.000000" stroke="none" 
	d="
M144.200623,450.015686 
	C149.415085,449.981903 154.629547,449.948151 160.282379,449.953308 
	C160.557999,452.116302 160.395233,454.240356 160.233170,456.355286 
	C163.089783,457.019135 165.887527,457.669312 168.484192,458.637207 
	C160.526230,458.980621 152.769363,459.006348 144.817963,459.009186 
	C144.623459,458.986298 144.232819,458.957367 144.247574,458.509399 
	C144.241760,455.379517 144.221191,452.697601 144.200623,450.015686 
z"/>
<path fill="#232C30" opacity="1.000000" stroke="none" 
	d="
M102.041275,284.406464 
	C115.438538,283.701233 128.733765,283.354401 142.491364,283.049316 
	C137.399155,284.311005 131.895798,286.119476 126.277580,286.608551 
	C118.482422,287.287079 110.601006,286.974884 102.336525,287.029663 
	C101.924095,286.236603 101.931664,285.500732 102.041275,284.406464 
z"/>
<path fill="#F7BA9A" opacity="1.000000" stroke="none" 
	d="
M136.042191,211.613159 
	C135.580521,212.970840 135.096283,213.941971 134.304459,215.034286 
	C134.828995,210.622330 135.753860,206.102936 136.428497,201.546463 
	C136.598572,200.397919 136.385910,198.597565 135.634521,198.008896 
	C132.044098,195.196091 133.467514,193.339935 136.523056,191.655548 
	C138.101105,190.785645 139.768082,190.077072 141.725174,189.162018 
	C142.069351,192.187958 142.000732,195.350571 142.117783,198.506271 
	C142.266953,202.527649 141.959747,206.137115 137.421005,207.923828 
	C136.641312,208.230743 136.471283,210.086395 136.042191,211.613159 
z"/>
<path fill="#889891" opacity="1.000000" stroke="none" 
	d="
M272.960205,460.827148 
	C238.276810,460.877716 203.593399,460.928253 168.699310,460.661133 
	C169.349670,460.219086 170.210709,460.094696 171.071747,459.970306 
	C204.728897,459.981384 238.386063,459.992462 272.506897,460.234741 
	C272.970612,460.465881 272.960205,460.827148 272.960205,460.827148 
z"/>
<path fill="#51AE55" opacity="1.000000" stroke="none" 
	d="
M105.235115,458.955872 
	C105.234253,457.574554 105.233391,456.193207 105.642838,454.350525 
	C111.091576,453.915009 116.130005,453.940857 121.225548,454.327637 
	C124.265572,456.073303 127.248474,457.458099 129.751434,458.900818 
	C121.524574,458.985077 113.777641,459.011444 105.832726,459.008331 
	C105.634750,458.978882 105.235115,458.955872 105.235115,458.955872 
z"/>
<path fill="#273339" opacity="1.000000" stroke="none" 
	d="
M121.168427,453.966736 
	C116.130005,453.940857 111.091576,453.915009 105.600220,453.938049 
	C104.463585,452.581909 103.779877,451.176910 103.178932,449.385010 
	C103.666679,449.002472 104.071671,449.006836 105.066902,449.305725 
	C112.082832,449.721100 118.508522,449.841980 125.255455,449.975647 
	C126.219475,450.002747 126.862259,450.017029 127.607605,450.421021 
	C127.359756,455.656219 122.987129,452.164612 121.168427,453.966736 
z"/>
<path fill="#57B45A" opacity="1.000000" stroke="none" 
	d="
M77.971649,194.193832 
	C77.582382,190.692123 78.682190,189.287704 81.876617,190.200211 
	C82.919739,198.845474 81.981438,202.217407 77.971619,202.594818 
	C77.971619,199.922424 77.971619,197.288071 77.971649,194.193832 
z"/>
<path fill="#9FA4A7" opacity="1.000000" stroke="none" 
	d="
M273.426605,460.903931 
	C272.960205,460.827148 272.970612,460.465881 272.971375,460.285400 
	C289.996460,460.074249 307.020782,460.043610 324.511963,460.242767 
	C324.978821,460.472595 324.965790,460.844879 324.965790,460.844879 
	C307.941528,460.890167 290.917267,460.935455 273.426605,460.903931 
z"/>
<path fill="#889891" opacity="1.000000" stroke="none" 
	d="
M144.232819,458.957367 
	C144.232819,458.957367 144.623459,458.986298 144.798615,459.282318 
	C145.034378,459.938721 145.094971,460.299072 145.155563,460.659454 
	C134.079193,460.771362 123.002831,460.883240 111.813995,460.657776 
	C118.467796,460.208160 125.234070,460.095886 132.458878,459.986176 
	C136.689209,459.644928 140.461014,459.301147 144.232819,458.957367 
z"/>
<path fill="#AFB4B6" opacity="1.000000" stroke="none" 
	d="
M325.433105,460.913025 
	C324.965790,460.844879 324.978821,460.472595 324.977234,460.286682 
	C336.364807,460.100769 347.753998,460.100769 359.143158,460.100769 
	C359.143341,460.394226 359.143524,460.687714 359.143707,460.981171 
	C348.062622,460.981171 336.981506,460.981171 325.433105,460.913025 
z"/>
<path fill="#3D7F46" opacity="1.000000" stroke="none" 
	d="
M145.554565,460.699707 
	C145.094971,460.299072 145.034378,459.938721 144.993134,459.305206 
	C152.769363,459.006348 160.526230,458.980621 168.765274,458.895569 
	C169.793991,459.026550 170.340546,459.216858 170.979431,459.688721 
	C170.210709,460.094696 169.349670,460.219086 168.241211,460.554779 
	C167.547958,460.784943 167.102142,460.803772 165.981934,460.585449 
	C160.195053,460.477814 155.082535,460.607300 149.970032,460.736786 
	C148.631210,460.737854 147.292374,460.738922 145.554565,460.699707 
z"/>
<path fill="#9FA4A7" opacity="1.000000" stroke="none" 
	d="
M74.028770,460.122009 
	C83.997810,460.046783 93.966850,459.971588 104.448318,460.098572 
	C104.983414,460.475800 105.006088,460.650787 105.028763,460.825775 
	C95.007652,460.858337 84.986534,460.890869 74.495560,460.699829 
	C74.025703,460.476288 74.028770,460.122009 74.028770,460.122009 
z"/>
<path fill="#AFB4B6" opacity="1.000000" stroke="none" 
	d="
M73.561806,460.053009 
	C74.028770,460.122009 74.025703,460.476288 74.031570,460.652893 
	C64.308578,460.829498 54.579712,460.829498 44.850853,460.829498 
	C44.850140,460.547668 44.849430,460.265839 44.848717,459.984009 
	C54.264091,459.984009 63.679466,459.984009 73.561806,460.053009 
z"/>
<path fill="#3D7F46" opacity="1.000000" stroke="none" 
	d="
M132.000351,459.983612 
	C125.234070,460.095886 118.467796,460.208160 111.360573,460.536926 
	C110.571854,460.764740 110.124077,460.776093 109.120705,460.554077 
	C107.720306,459.893097 106.875496,459.465454 106.030701,459.037781 
	C113.777641,459.011444 121.524574,458.985077 130.044235,458.929199 
	C131.211426,459.260986 131.605881,459.622314 132.000351,459.983612 
z"/>
<path fill="#889891" opacity="1.000000" stroke="none" 
	d="
M150.423187,460.861450 
	C155.082535,460.607300 160.195053,460.477814 165.648209,460.564026 
	C160.951355,460.848480 155.913864,460.917297 150.423187,460.861450 
z"/>
<path fill="#4EAF51" opacity="1.000000" stroke="none" 
	d="
M310.731140,243.764313 
	C311.160034,245.350098 311.321899,246.880981 311.483765,248.411850 
	C311.132935,248.455902 310.782104,248.499969 310.431274,248.544022 
	C310.287537,247.285004 310.143829,246.025986 310.000061,244.381226 
	C310.154694,243.900131 310.309418,243.804779 310.731140,243.764313 
z"/>
<path fill="#889891" opacity="1.000000" stroke="none" 
	d="
M105.832718,459.008362 
	C106.875496,459.465454 107.720306,459.893097 108.786720,460.524323 
	C107.947395,460.803894 106.886459,460.879913 105.427139,460.890839 
	C105.006088,460.650787 104.983414,460.475800 104.903824,460.042053 
	C104.846901,459.783325 104.955711,459.329285 105.095413,459.142578 
	C105.235115,458.955872 105.634750,458.978882 105.832718,459.008362 
z"/>
<path fill="#FEFEFE" opacity="1.000000" stroke="none" 
	d="
M176.368546,216.931870 
	C169.844391,215.930878 163.320221,214.929871 156.347137,213.902328 
	C155.934662,181.735153 155.971680,149.594528 156.006973,117.453903 
	C156.012100,112.790306 155.916534,108.124458 156.029068,103.463554 
	C156.264130,93.728485 162.738083,87.189507 172.407242,87.038078 
	C179.899643,86.920738 187.396500,87.117706 194.890396,87.055595 
	C199.282455,87.019196 201.179031,89.073776 201.311523,93.417908 
	C201.505325,99.772385 202.796158,100.906113 209.086639,100.934479 
	C220.411804,100.985542 231.737061,101.025398 243.062317,101.040062 
	C248.609985,101.047249 249.754410,99.936935 250.078369,94.425209 
	C250.409470,88.791985 251.792969,87.426964 257.404053,87.380974 
	C262.733521,87.337296 268.064636,87.305428 273.393250,87.385658 
	C284.415131,87.551590 290.841003,93.844032 290.803009,104.776550 
	C290.514771,187.710785 290.181702,270.644867 289.801025,353.578735 
	C289.751923,364.275665 283.489807,370.973511 273.421570,370.949432 
	C239.450470,370.868225 205.479752,370.615326 171.509048,370.405396 
	C170.352554,370.398224 169.197571,370.148682 167.593658,369.897430 
	C169.114746,357.974792 163.619156,347.437531 161.427994,336.340698 
	C159.357346,325.854309 157.144653,315.395905 155.051270,304.027893 
	C155.286331,280.092682 155.464600,257.054749 155.642853,234.016846 
	C162.637650,234.200928 169.632462,234.385010 177.246887,234.217773 
	C181.546600,232.507431 185.226669,231.148407 189.389404,229.799622 
	C202.805557,229.809875 215.739059,229.809875 228.994766,229.809875 
	C228.891586,228.043076 228.810516,226.655075 228.705383,224.854675 
	C216.555435,224.854675 204.760803,224.854675 193.107208,224.562958 
	C194.824188,222.509293 196.400131,220.747375 198.446823,218.991714 
	C223.874695,218.997986 248.831802,218.997986 273.788910,218.997986 
	C273.787628,218.661209 273.786377,218.324432 273.785126,217.987656 
	C248.838135,217.987656 223.891144,217.987656 199.077545,217.676910 
	C205.630890,209.630524 212.050827,201.894852 218.542206,194.073105 
	C217.709091,192.786270 216.965408,191.044724 215.713821,189.823898 
	C212.819580,187.000778 214.256653,185.317276 217.405304,183.759918 
	C221.824448,183.768295 225.766647,183.768295 229.754303,183.768295 
	C229.754303,181.882050 229.754303,180.628571 229.754303,179.227051 
	C213.444382,179.227051 197.387863,179.227051 180.925934,179.227051 
	C181.110062,180.888321 181.259537,182.236816 181.418823,183.673920 
	C189.187531,183.673920 196.492737,183.673920 203.860718,184.098862 
	C203.617142,186.682434 203.310806,188.841049 202.535400,191.000275 
	C193.099289,191.000870 184.132248,191.000870 175.165222,191.000870 
	C175.168167,191.336304 175.171112,191.671722 175.174057,192.007156 
	C184.435852,192.007156 193.697662,192.007156 202.944489,192.352417 
	C198.287140,197.169830 193.644775,201.641953 188.532867,206.076874 
	C183.162491,206.039673 178.261688,206.039673 173.057800,206.039673 
	C173.142639,207.933212 173.204407,209.311676 173.285675,211.125809 
	C177.066864,211.125809 180.503067,211.125809 183.794891,211.416458 
	C181.223190,213.448700 178.795868,215.190292 176.368546,216.931870 
M200.502213,314.061920 
	C196.011398,314.039856 191.516708,314.122406 187.031204,313.956604 
	C184.329285,313.856720 182.999557,314.722717 183.040268,317.594513 
	C183.115723,322.915649 182.803391,328.254517 183.169617,333.550232 
	C183.254730,334.781067 185.404144,336.861115 186.622925,336.875122 
	C210.904495,337.153656 235.188934,337.171906 259.472595,337.288727 
	C261.999969,337.300873 263.036713,336.327026 262.974670,333.733337 
	C262.859314,328.913116 262.778290,324.075073 263.067627,319.267548 
	C263.307831,315.275787 261.800415,314.154236 257.886047,314.178406 
	C239.092163,314.294464 220.296494,314.128143 200.502213,314.061920 
M246.268570,136.100754 
	C231.669525,136.100754 217.070480,136.100754 202.321030,136.100754 
	C202.321030,138.209686 202.321030,139.924377 202.321030,141.695526 
	C218.324417,141.695526 234.032257,141.695526 250.234009,141.695526 
	C249.092178,139.504593 252.064194,135.923096 246.268570,136.100754 
M180.580292,161.998505 
	C178.149048,161.998505 175.717804,161.998505 172.959213,161.998505 
	C173.114532,163.997620 173.221924,165.379822 173.323914,166.692596 
	C182.245300,166.692596 190.776398,166.692596 199.671005,166.692596 
	C199.543228,164.966919 199.441147,163.588547 199.323639,162.001541 
	C193.128662,162.001541 187.343445,162.001541 180.580292,161.998505 
M220.091568,130.902267 
	C224.233139,131.402161 228.374725,131.902069 232.927704,132.451630 
	C232.469360,127.466278 227.556229,124.965927 229.522369,120.408806 
	C229.638458,120.139732 227.208527,118.030716 226.286362,118.235100 
	C225.015656,118.516739 223.633377,120.014946 223.096954,121.320023 
	C222.701080,122.283203 223.580719,123.770653 223.768005,124.525002 
	C222.448334,126.586082 221.326385,128.338333 220.091568,130.902267 
M185.505463,253.006805 
	C182.358978,253.000183 179.209351,253.079147 176.066910,252.962997 
	C172.886505,252.845459 172.524567,254.269547 173.561508,257.013458 
	C181.341583,257.013458 188.945312,257.092255 196.543442,256.921478 
	C197.584549,256.898071 198.597748,255.632462 199.623886,254.942001 
	C198.560425,254.300201 197.532440,253.188339 196.426834,253.104874 
	C193.133347,252.856293 189.809357,253.011627 185.505463,253.006805 
M175.568649,174.924988 
	C209.616425,174.924988 243.664215,174.924988 277.712006,174.924988 
	C277.075714,174.090729 276.432495,174.012329 275.789246,174.012146 
	C243.158722,174.003281 210.528183,173.997345 177.897675,174.016708 
	C176.936615,174.017288 175.975708,174.292053 175.568649,174.924988 
M254.499939,264.998566 
	C261.578125,264.998566 268.656311,264.998566 275.734467,264.998566 
	C275.726624,264.781128 275.718781,264.563690 275.710968,264.346252 
	C242.231049,264.346252 208.751144,264.346252 175.271240,264.346252 
	C175.271759,264.564209 175.272263,264.782196 175.272781,265.000153 
	C201.348511,265.000153 227.424240,265.000153 254.499939,264.998566 
M186.611206,234.998779 
	C184.124084,234.998779 181.636978,234.998779 179.149857,234.998779 
	C179.159683,235.227341 179.169510,235.455917 179.179337,235.684479 
	C194.054047,235.684479 208.928741,235.684479 223.803452,235.684479 
	C223.803406,235.455917 223.803345,235.227341 223.803299,234.998779 
	C211.728943,234.998779 199.654587,234.998779 186.611206,234.998779 
M179.801071,280.999847 
	C178.212097,280.999847 176.623123,280.999847 175.034149,280.999847 
	C175.036560,281.243958 175.038971,281.488068 175.041382,281.732178 
	C184.004074,281.732178 192.966766,281.732178 201.929443,281.732178 
	C201.931244,281.488342 201.933029,281.244476 201.934830,281.000641 
	C194.865372,281.000641 187.795898,281.000641 179.801071,280.999847 
z"/>
<path fill="#FAFAFA" opacity="1.000000" stroke="none" 
	d="
M132.458878,459.986176 
	C131.605881,459.622314 131.211426,459.260986 130.524170,458.871277 
	C127.248474,457.458099 124.265572,456.073303 121.225548,454.327637 
	C122.987129,452.164612 127.359756,455.656219 127.722458,449.996948 
	C127.233391,425.048370 126.731529,400.913483 126.230888,376.778625 
	C125.941071,362.807068 125.653206,348.835449 125.481705,334.522644 
	C125.500710,333.479156 125.402481,332.776947 125.373169,331.605042 
	C125.525497,323.813843 125.608910,316.492310 125.692322,309.170746 
	C130.003006,322.712128 134.115112,336.321198 138.697769,349.769928 
	C141.513077,358.031982 142.890137,366.190399 142.409103,375.047333 
	C141.139481,398.424347 140.659302,421.844666 139.924042,445.249573 
	C139.852951,447.512329 139.034988,450.627563 143.742126,449.972778 
	C144.221191,452.697601 144.241760,455.379517 144.247574,458.509399 
	C140.461014,459.301147 136.689209,459.644928 132.458878,459.986176 
z"/>
<path fill="#313C42" opacity="1.000000" stroke="none" 
	d="
M125.364456,334.863861 
	C125.653206,348.835449 125.941071,362.807068 126.230888,376.778625 
	C126.731529,400.913483 127.233391,425.048370 127.619888,449.607269 
	C126.862259,450.017029 126.219475,450.002747 125.164978,449.760742 
	C124.561462,449.270905 124.310226,449.092438 123.999542,448.997559 
	C123.666458,438.309448 123.333382,427.621307 123.298035,416.171021 
	C123.393875,409.600189 123.191994,403.791595 122.990105,397.982971 
	C122.989014,396.603516 122.987923,395.224030 123.287643,393.135864 
	C123.390114,386.284546 123.191757,380.141876 122.993401,373.999237 
	C122.662498,368.975739 122.331596,363.952271 122.298737,358.168701 
	C122.394608,351.266907 122.192421,345.125244 121.990234,338.983551 
	C121.989120,338.546295 121.988014,338.109009 122.271622,337.142975 
	C123.492378,336.030731 124.428421,335.447296 125.364456,334.863861 
z"/>
<path fill="#455A64" opacity="1.000000" stroke="none" 
	d="
M155.363556,234.029633 
	C155.464600,257.054749 155.286331,280.092682 154.978012,303.587006 
	C153.912094,302.496887 152.689850,301.051331 152.101501,299.382294 
	C150.966232,296.161682 150.188904,292.814941 149.442352,288.955292 
	C149.464432,287.272430 149.307343,286.154724 149.201813,284.568298 
	C149.380997,271.172913 149.508606,258.246246 149.786011,244.949493 
	C149.944412,244.048462 149.953033,243.517532 149.961655,242.986618 
	C149.981796,240.307632 150.001938,237.628632 150.432007,234.484497 
	C151.884354,233.984207 152.926788,233.949081 153.969223,233.913940 
	C154.340912,233.956757 154.712585,233.999588 155.363556,234.029633 
z"/>
<path fill="#FAFAFA" opacity="1.000000" stroke="none" 
	d="
M149.636215,245.319595 
	C149.508606,258.246246 149.380997,271.172913 148.945251,284.532928 
	C148.465942,284.943756 148.294769,284.921265 148.123611,284.898804 
	C148.025040,284.291718 147.926453,283.684662 147.644562,282.830048 
	C146.317703,275.787537 145.340561,268.959137 143.982849,262.207214 
	C142.678802,255.722336 143.958832,250.056702 148.742020,245.079971 
	C149.198135,245.089722 149.636215,245.319595 149.636215,245.319595 
z"/>
<path fill="#232C30" opacity="1.000000" stroke="none" 
	d="
M125.236427,309.168823 
	C125.608910,316.492310 125.525497,323.813843 124.978073,331.547028 
	C124.004211,330.315765 123.494362,328.672882 122.984512,327.029999 
	C122.988548,322.407379 122.860558,317.778564 123.078331,313.166016 
	C123.142395,311.809235 124.185905,310.498627 125.236427,309.168823 
z"/>
<path fill="#324149" opacity="1.000000" stroke="none" 
	d="
M162.996246,371.893188 
	C162.996338,367.994904 162.996338,364.568573 162.996338,361.142273 
	C163.230713,361.144684 163.465103,361.147125 163.699478,361.149536 
	C163.699478,367.051880 163.699478,372.954224 163.699478,378.856567 
	C163.465027,378.866608 163.230591,378.876617 162.996140,378.886658 
	C162.996140,376.712830 162.996140,374.539001 162.996246,371.893188 
z"/>
<path fill="#324149" opacity="1.000000" stroke="none" 
	d="
M162.971130,386.025757 
	C162.995544,391.846191 162.995544,397.279907 162.995544,402.713654 
	C162.788727,402.716522 162.581924,402.719391 162.375107,402.722260 
	C162.375107,396.889679 162.375107,391.057068 162.375107,385.224426 
	C162.474060,385.224915 162.611938,385.184479 162.664078,385.234131 
	C162.780899,385.345367 162.855118,385.501343 162.971130,386.025757 
z"/>
<path fill="#495C5B" opacity="1.000000" stroke="none" 
	d="
M123.531601,449.015930 
	C124.310226,449.092438 124.561462,449.270905 124.843735,449.747925 
	C118.508522,449.841980 112.082832,449.721100 105.370590,449.312683 
	C111.077240,449.028168 117.070442,449.031219 123.531601,449.015930 
z"/>
<path fill="#324149" opacity="1.000000" stroke="none" 
	d="
M121.989365,339.453613 
	C122.192421,345.125244 122.394608,351.266907 122.300621,357.701965 
	C121.999130,351.971405 121.993813,345.947540 121.989365,339.453613 
z"/>
<path fill="#324149" opacity="1.000000" stroke="none" 
	d="
M122.994644,374.467590 
	C123.191757,380.141876 123.390114,386.284546 123.289360,392.722046 
	C122.992134,386.989929 122.994011,380.962952 122.994644,374.467590 
z"/>
<path fill="#324149" opacity="1.000000" stroke="none" 
	d="
M161.998779,418.069641 
	C161.998779,421.298279 161.998779,424.061432 161.998779,426.824585 
	C161.769714,426.825562 161.540649,426.826538 161.311584,426.827545 
	C161.311584,421.606232 161.311584,416.384918 161.311584,411.163574 
	C161.540649,411.152893 161.769714,411.142212 161.998779,411.131500 
	C161.998779,413.289062 161.998779,415.446594 161.998779,418.069641 
z"/>
<path fill="#324149" opacity="1.000000" stroke="none" 
	d="
M122.989326,398.452759 
	C123.191994,403.791595 123.393875,409.600189 123.299927,415.702271 
	C122.998917,410.304626 122.993736,404.613586 122.989326,398.452759 
z"/>
<path fill="#324149" opacity="1.000000" stroke="none" 
	d="
M122.692703,327.309937 
	C123.494362,328.672882 124.004211,330.315765 124.909164,332.016663 
	C125.402481,332.776947 125.500710,333.479156 125.481697,334.522644 
	C124.428421,335.447296 123.492378,336.030731 122.273041,336.815063 
	C122.126785,333.873901 122.263840,330.731903 122.692703,327.309937 
z"/>
<path fill="#889891" opacity="1.000000" stroke="none" 
	d="
M148.063538,285.240173 
	C148.294769,284.921265 148.465942,284.943756 148.893677,285.001648 
	C149.307343,286.154724 149.464432,287.272430 149.390137,288.575500 
	C148.773666,287.701111 148.388580,286.641327 148.063538,285.240173 
z"/>
<path fill="#324149" opacity="1.000000" stroke="none" 
	d="
M157.999390,340.001221 
	C157.665070,338.911713 157.330750,337.822174 156.998199,336.366333 
	C157.000000,336.000000 157.000610,335.998779 157.000610,335.998779 
	C157.333969,337.088318 157.667328,338.177887 158.000336,339.633728 
	C158.000000,340.000000 157.999390,340.001221 157.999390,340.001221 
z"/>
<path fill="#324149" opacity="1.000000" stroke="none" 
	d="
M158.000305,339.999878 
	C158.333954,341.089020 158.667313,342.178253 159.000336,343.633759 
	C159.000000,344.000000 158.999390,344.001221 158.999390,344.001221 
	C158.665085,342.911926 158.330795,341.822662 157.997940,340.367310 
	C157.999390,340.001221 158.000000,340.000000 158.000305,339.999878 
z"/>
<path fill="#324149" opacity="1.000000" stroke="none" 
	d="
M156.999695,336.000122 
	C156.665070,334.911011 156.330750,333.821808 155.998199,332.366272 
	C156.000000,332.000000 156.000610,331.998779 156.000610,331.998779 
	C156.333954,333.088104 156.667297,334.177399 157.000626,335.632751 
	C157.000610,335.998779 157.000000,336.000000 156.999695,336.000122 
z"/>
<path fill="#324149" opacity="1.000000" stroke="none" 
	d="
M155.999695,332.000122 
	C155.665054,330.911011 155.330734,329.821808 154.998199,328.366272 
	C155.000000,328.000000 155.000610,327.998779 155.000610,327.998779 
	C155.333954,329.088104 155.667297,330.177399 156.000626,331.632751 
	C156.000610,331.998779 156.000000,332.000000 155.999695,332.000122 
z"/>
<path fill="#324149" opacity="1.000000" stroke="none" 
	d="
M154.999695,328.000122 
	C154.665070,326.911011 154.330734,325.821808 153.998199,324.366272 
	C154.000000,324.000000 154.000610,323.998779 154.000610,323.998779 
	C154.333954,325.088104 154.667297,326.177399 155.000626,327.632751 
	C155.000610,327.998779 155.000000,328.000000 154.999695,328.000122 
z"/>
<path fill="#324149" opacity="1.000000" stroke="none" 
	d="
M153.999695,324.000122 
	C153.665070,322.911011 153.330734,321.821808 152.998199,320.366272 
	C153.000000,320.000000 153.000610,319.998779 153.000610,319.998779 
	C153.333954,321.088104 153.667297,322.177399 154.000626,323.632751 
	C154.000610,323.998779 154.000000,324.000000 153.999695,324.000122 
z"/>
<path fill="#324149" opacity="1.000000" stroke="none" 
	d="
M152.000610,315.998779 
	C152.333954,317.088104 152.667297,318.177399 153.000626,319.632751 
	C153.000610,319.998779 153.000000,320.000000 152.999695,320.000122 
	C152.665070,318.911011 152.330734,317.821808 151.998199,316.366272 
	C152.000000,316.000000 152.000610,315.998779 152.000610,315.998779 
z"/>
<path fill="#324149" opacity="1.000000" stroke="none" 
	d="
M151.000610,312.000000 
	C151.333954,313.088959 151.667297,314.177887 152.000626,315.632812 
	C152.000610,315.998779 152.000000,316.000000 151.999695,316.000122 
	C151.665085,314.910950 151.330780,313.821655 150.998230,312.366180 
	C151.000000,312.000000 151.000610,312.000000 151.000610,312.000000 
z"/>
<path fill="#324149" opacity="1.000000" stroke="none" 
	d="
M159.999390,348.001221 
	C159.665100,346.911926 159.330795,345.822632 158.997940,344.367279 
	C158.999390,344.001221 159.000000,344.000000 159.000305,343.999878 
	C159.333969,345.089050 159.667328,346.178345 160.000336,347.633820 
	C160.000000,348.000000 159.999390,348.001221 159.999390,348.001221 
z"/>
<path fill="#324149" opacity="1.000000" stroke="none" 
	d="
M160.000305,347.999939 
	C160.297516,348.661194 160.594406,349.322479 160.891312,349.983795 
	C160.678421,350.052551 160.465546,350.121307 160.252655,350.190094 
	C160.167587,349.659790 160.082520,349.129486 159.998413,348.300201 
	C159.999390,348.001221 160.000000,348.000000 160.000305,347.999939 
z"/>
<path fill="#324149" opacity="1.000000" stroke="none" 
	d="
M161.887970,353.713867 
	C161.594040,353.797577 161.200226,353.704437 161.120132,353.492645 
	C161.052567,353.313965 161.349075,352.997559 161.484421,352.742126 
	C161.630966,352.989960 161.777512,353.237762 161.887970,353.713867 
z"/>
<path fill="#324149" opacity="1.000000" stroke="none" 
	d="
M162.641342,358.120361 
	C162.361664,357.845490 162.245682,357.435059 162.187637,357.016571 
	C162.177582,356.943970 162.412643,356.837433 162.534515,356.746582 
	C162.631226,357.158386 162.727936,357.570221 162.641342,358.120361 
z"/>
<path fill="#324149" opacity="1.000000" stroke="none" 
	d="
M150.999695,312.000000 
	C150.703293,311.342651 150.407227,310.685303 150.111145,310.027954 
	C150.322586,309.959503 150.534012,309.891022 150.745453,309.822540 
	C150.829727,310.349945 150.914017,310.877350 150.999451,311.702393 
	C151.000610,312.000000 151.000000,312.000000 150.999695,312.000000 
z"/>
<path fill="#324149" opacity="1.000000" stroke="none" 
	d="
M149.885284,306.706360 
	C149.594650,306.789368 149.203140,306.696533 149.125290,306.487091 
	C149.058701,306.308044 149.351913,305.995209 149.485977,305.741547 
	C149.630798,305.987671 149.775635,306.233826 149.885284,306.706360 
z"/>
<path fill="#4EAF51" opacity="1.000000" stroke="none" 
	d="
M297.009460,316.333099 
	C297.859100,316.299683 298.685944,316.599365 299.512756,316.899048 
	C298.914856,317.262115 298.316986,317.625183 297.377686,317.994080 
	C297.019745,317.555359 297.003204,317.110779 297.009460,316.333099 
z"/>
<path fill="#4EAF51" opacity="1.000000" stroke="none" 
	d="
M316.490112,275.514404 
	C316.563568,276.241547 316.431580,276.761230 316.299591,277.280914 
	C315.772644,276.749084 315.245697,276.217255 314.718750,275.685425 
	C315.240723,275.559265 315.762726,275.433075 316.490112,275.514404 
z"/>
<path fill="#4EAF51" opacity="1.000000" stroke="none" 
	d="
M314.236816,271.740387 
	C314.497375,272.265045 314.507874,272.837036 314.452545,273.402649 
	C314.449341,273.435394 313.911987,273.415924 313.623199,273.420776 
	C313.739594,272.875977 313.855988,272.331177 314.236816,271.740387 
z"/>
<path fill="#4EAF51" opacity="1.000000" stroke="none" 
	d="
M338.606567,272.045471 
	C338.209747,272.287628 337.814941,272.285919 337.422363,272.255646 
	C337.411346,272.254791 337.423828,271.948822 337.425354,271.785095 
	C337.819885,271.789276 338.214386,271.793457 338.606567,272.045471 
z"/>
<path fill="#4EAF51" opacity="1.000000" stroke="none" 
	d="
M345.466003,270.608459 
	C345.349945,271.058411 345.066620,271.334229 344.765259,271.588776 
	C344.757538,271.595306 344.552368,271.368073 344.439270,271.249817 
	C344.724976,270.977051 345.010681,270.704315 345.466003,270.608459 
z"/>
<path fill="#4EAF51" opacity="1.000000" stroke="none" 
	d="
M299.608459,313.533997 
	C300.058411,313.650055 300.334229,313.933380 300.588776,314.234741 
	C300.595276,314.242432 300.368042,314.447632 300.249817,314.560730 
	C299.977081,314.275024 299.704315,313.989319 299.608459,313.533997 
z"/>
<path fill="#4EAF51" opacity="1.000000" stroke="none" 
	d="
M301.606567,311.045471 
	C301.209747,311.287628 300.814941,311.286011 300.422363,311.255707 
	C300.411285,311.254852 300.423798,310.948822 300.425354,310.785095 
	C300.819885,310.789276 301.214386,310.793457 301.606567,311.045471 
z"/>
<path fill="#4EAF51" opacity="1.000000" stroke="none" 
	d="
M304.391541,303.466003 
	C303.941589,303.349976 303.665741,303.066620 303.411224,302.765259 
	C303.404694,302.757568 303.631958,302.552368 303.750183,302.439270 
	C304.022949,302.724976 304.295685,303.010681 304.391541,303.466003 
z"/>
<path fill="#4EAF51" opacity="1.000000" stroke="none" 
	d="
M305.533997,298.391541 
	C305.650055,297.941589 305.933380,297.665771 306.234711,297.411194 
	C306.242432,297.404663 306.447632,297.631958 306.560730,297.750183 
	C306.275024,298.022949 305.989319,298.295685 305.533997,298.391541 
z"/>
<path fill="#4EAF51" opacity="1.000000" stroke="none" 
	d="
M308.606567,293.045471 
	C308.209747,293.287628 307.814941,293.285980 307.422363,293.255707 
	C307.411285,293.254852 307.423798,292.948822 307.425354,292.785095 
	C307.819885,292.789276 308.214386,292.793488 308.606567,293.045471 
z"/>
<path fill="#4EAF51" opacity="1.000000" stroke="none" 
	d="
M311.045471,285.393433 
	C311.287628,285.790253 311.285919,286.185059 311.255646,286.577637 
	C311.254791,286.588654 310.948822,286.576172 310.785095,286.574646 
	C310.789276,286.180115 310.793457,285.785614 311.045471,285.393433 
z"/>
<path fill="#4EAF51" opacity="1.000000" stroke="none" 
	d="
M332.045471,272.393433 
	C332.287598,272.790253 332.285889,273.185059 332.255646,273.577637 
	C332.254791,273.588623 331.948822,273.576141 331.785095,273.574646 
	C331.789276,273.180115 331.793457,272.785614 332.045471,272.393433 
z"/>
<path fill="#4EAF51" opacity="1.000000" stroke="none" 
	d="
M322.121063,264.725281 
	C322.220978,264.250519 322.360809,264.001526 322.500610,263.752502 
	C322.640015,264.001190 322.942749,264.312073 322.877716,264.482910 
	C322.795532,264.698639 322.413605,264.800201 322.121063,264.725281 
z"/>
<path fill="#4EAF51" opacity="1.000000" stroke="none" 
	d="
M313.878937,262.274719 
	C313.779022,262.749481 313.639191,262.998474 313.499390,263.247498 
	C313.359985,262.998810 313.057251,262.687927 313.122284,262.517090 
	C313.204437,262.301361 313.586395,262.199799 313.878937,262.274719 
z"/>
<path fill="#4EAF51" opacity="1.000000" stroke="none" 
	d="
M324.885010,261.704407 
	C324.593903,261.786926 324.207703,261.696594 324.124084,261.486053 
	C324.056213,261.315186 324.351593,261.000031 324.485870,260.748901 
	C324.630829,260.992462 324.775787,261.235992 324.885010,261.704407 
z"/>
<path fill="#4EAF51" opacity="1.000000" stroke="none" 
	d="
M352.467804,228.450043 
	C352.523071,228.417114 352.412537,228.482971 352.467804,228.450043 
z"/>
<path fill="#4EAF51" opacity="1.000000" stroke="none" 
	d="
M338.055664,243.040314 
	C337.932800,243.055435 337.809906,243.070557 337.844849,243.040375 
	C338.002625,242.995056 338.055664,243.040314 338.055664,243.040314 
z"/>
<path fill="#4EAF51" opacity="1.000000" stroke="none" 
	d="
M331.467896,251.450104 
	C331.523071,251.417236 331.412689,251.482956 331.467896,251.450104 
z"/>
<path fill="#4EAF51" opacity="1.000000" stroke="none" 
	d="
M337.980072,242.968460 
	C338.076996,242.927429 338.196503,242.913010 338.185822,242.969452 
	C338.055664,243.040314 338.002625,242.995056 337.980072,242.968460 
z"/>
<path fill="#FCFDFC" opacity="1.000000" stroke="none" 
	d="
M285.463165,57.104450 
	C287.186737,44.288189 297.293274,41.394970 304.852112,45.780361 
	C309.948120,48.736904 311.032135,53.991554 312.281586,59.431301 
	C304.484650,62.131207 296.997833,64.723717 289.077667,67.528854 
	C288.644287,67.741493 288.303619,67.811943 288.216675,67.473816 
	C287.569519,65.868668 287.009308,64.601646 286.552521,63.203735 
	C286.655945,63.072853 286.542206,62.759182 286.505768,62.374191 
	C286.188995,60.991966 285.908630,59.994732 285.667847,58.676559 
	C285.626007,57.938564 285.544586,57.521507 285.463165,57.104450 
z"/>
<path fill="#FCFDFC" opacity="1.000000" stroke="none" 
	d="
M319.562653,96.174683 
	C314.464142,102.012619 319.483185,107.052727 320.249786,112.662041 
	C318.282288,113.408592 316.358337,114.138634 314.166565,114.970299 
	C313.461121,113.012589 312.701691,111.362877 312.276459,109.631104 
	C311.351410,105.863449 310.076843,102.920349 305.758545,101.393799 
	C301.514709,99.893570 299.018524,93.569672 300.297333,90.278847 
	C302.542328,84.501755 307.804932,81.572685 313.347626,83.015343 
	C318.312714,84.307663 320.661926,88.998543 319.562653,96.174683 
z"/>
<path fill="#3D7F46" opacity="1.000000" stroke="none" 
	d="
M285.187714,57.000778 
	C285.544586,57.521507 285.626007,57.938564 285.471191,58.959709 
	C285.153687,60.712265 285.072388,61.860733 284.995178,63.005077 
	C284.999237,63.000954 285.009125,62.990841 285.009125,62.990841 
	C281.678131,59.444679 282.910278,55.690376 284.912262,51.916588 
	C284.912262,53.576759 284.912262,55.236935 285.187714,57.000778 
z"/>
<path fill="#3D7F46" opacity="1.000000" stroke="none" 
	d="
M348.011902,101.936417 
	C348.623657,103.265930 349.226898,104.928993 349.830139,106.592056 
	C349.221222,106.754013 348.612305,106.915970 348.003387,107.077927 
	C348.003387,105.475273 348.003387,103.872620 348.011902,101.936417 
z"/>
<path fill="#3D7F46" opacity="1.000000" stroke="none" 
	d="
M288.303619,67.811951 
	C288.303619,67.811943 288.644287,67.741493 288.816315,67.768234 
	C287.180511,69.684456 286.310822,68.999672 286.011353,66.357880 
	C285.998444,66.000992 285.986603,66.008568 286.242798,66.179581 
	C287.100555,66.837708 287.702087,67.324829 288.303619,67.811951 
z"/>
<path fill="#3D7F46" opacity="1.000000" stroke="none" 
	d="
M337.985168,70.015015 
	C338.318573,70.787102 338.651978,71.559189 338.993286,72.665085 
	C339.001160,72.998894 339.013275,72.986618 339.013245,72.986618 
	C338.683624,72.213676 338.354004,71.440720 338.011414,70.334641 
	C337.998413,70.001518 337.985168,70.015015 337.985168,70.015015 
z"/>
<path fill="#3D7F46" opacity="1.000000" stroke="none" 
	d="
M340.013275,75.986618 
	C339.679840,75.212532 339.346436,74.438438 339.013123,73.325485 
	C339.013275,72.986618 339.001160,72.998894 338.994629,73.003235 
	C339.320709,73.781105 339.653320,74.554626 339.993530,75.663513 
	C340.001160,75.998894 340.013275,75.986618 340.013275,75.986618 
z"/>
<path fill="#3D7F46" opacity="1.000000" stroke="none" 
	d="
M338.005615,69.996841 
	C337.683350,69.217583 337.353882,68.443016 337.011353,67.335022 
	C336.998322,67.001602 336.985138,67.015053 336.985138,67.015053 
	C337.318787,67.788879 337.652405,68.562706 337.985596,69.675766 
	C337.985168,70.015015 337.998413,70.001518 338.005615,69.996841 
z"/>
<path fill="#3D7F46" opacity="1.000000" stroke="none" 
	d="
M334.989166,61.014267 
	C335.319366,61.787174 335.649567,62.560078 335.990662,63.665749 
	C336.001556,63.998516 336.014679,63.984974 336.014679,63.984974 
	C335.686523,63.211411 335.358368,62.437847 335.015106,61.332191 
	C335.000000,61.000099 334.989166,61.014263 334.989166,61.014267 
z"/>
<path fill="#3D7F46" opacity="1.000000" stroke="none" 
	d="
M341.012939,78.986649 
	C340.679626,78.212532 340.346283,77.438423 340.013123,76.325462 
	C340.013275,75.986618 340.001160,75.998894 339.994629,76.003235 
	C340.320648,76.781364 340.653168,77.555145 340.993286,78.664047 
	C341.000885,78.999161 341.012939,78.986649 341.012939,78.986649 
z"/>
<path fill="#3D7F46" opacity="1.000000" stroke="none" 
	d="
M286.542206,62.759182 
	C286.542206,62.759182 286.655945,63.072853 286.403381,63.636963 
	C286.096100,64.803574 286.041351,65.406075 285.986633,66.008568 
	C285.986603,66.008568 285.998444,66.000992 286.005188,65.996780 
	C285.675659,65.218002 285.339355,64.443428 285.006104,63.329849 
	C285.009125,62.990841 284.999237,63.000954 285.388062,62.974152 
	C286.032043,62.884628 286.287140,62.821907 286.542206,62.759182 
z"/>
<path fill="#3D7F46" opacity="1.000000" stroke="none" 
	d="
M335.994385,64.003197 
	C336.320160,64.783882 336.653107,65.559898 336.985596,66.675484 
	C336.985138,67.015053 336.998322,67.001602 337.005524,66.996910 
	C336.682983,66.215935 336.353210,65.439651 336.019043,64.324173 
	C336.014679,63.984974 336.001556,63.998516 335.994385,64.003197 
z"/>
<path fill="#3D7F46" opacity="1.000000" stroke="none" 
	d="
M347.346741,98.296730 
	C347.361725,98.007904 347.509003,97.850975 347.656281,97.694046 
	C347.597198,97.938904 347.538116,98.183769 347.346741,98.296730 
z"/>
<path fill="#3D7F46" opacity="1.000000" stroke="none" 
	d="
M340.994263,79.003845 
	C341.244019,79.361687 341.500458,79.714836 341.756897,80.067978 
	C341.629852,80.158928 341.502838,80.249878 341.375793,80.340836 
	C341.260132,80.054390 341.144470,79.767952 341.020874,79.234085 
	C341.012939,78.986649 341.000885,78.999161 340.994263,79.003845 
z"/>
<path fill="#3D7F46" opacity="1.000000" stroke="none" 
	d="
M342.393555,82.703781 
	C342.560669,82.837914 342.585114,83.075249 342.609558,83.312592 
	C342.489990,83.144058 342.370422,82.975517 342.393555,82.703781 
z"/>
<path fill="#3D7F46" opacity="1.000000" stroke="none" 
	d="
M343.787109,85.992462 
	C343.603607,86.117332 343.417084,86.056496 343.230591,85.995667 
	C343.415100,85.932693 343.599640,85.869728 343.787109,85.992462 
z"/>
<path fill="#3D7F46" opacity="1.000000" stroke="none" 
	d="
M344.388794,88.684639 
	C344.567749,88.826149 344.595551,89.077675 344.623352,89.329208 
	C344.494751,89.151031 344.366180,88.972839 344.388794,88.684639 
z"/>
<path fill="#3D7F46" opacity="1.000000" stroke="none" 
	d="
M345.346741,92.296738 
	C345.361725,92.007927 345.509003,91.850990 345.656311,91.694054 
	C345.597229,91.938911 345.538147,92.183769 345.346741,92.296738 
z"/>
<path fill="#3D7F46" opacity="1.000000" stroke="none" 
	d="
M346.221252,95.009995 
	C346.405518,94.884811 346.591644,94.945969 346.777740,95.007133 
	C346.592865,95.070206 346.407990,95.133278 346.221252,95.009995 
z"/>
<path fill="#3D7F46" opacity="1.000000" stroke="none" 
	d="
M347.552124,109.569626 
	C347.468475,109.627350 347.438782,109.400757 347.438782,109.400757 
	C347.438782,109.400757 347.635803,109.511909 347.552124,109.569626 
z"/>
<path fill="#3D7F46" opacity="1.000000" stroke="none" 
	d="
M335.007111,60.994690 
	C334.891327,60.850632 334.768433,60.711987 334.645569,60.573334 
	C334.727509,60.626427 334.809479,60.679527 334.940308,60.873444 
	C334.989166,61.014263 335.000000,61.000099 335.007111,60.994690 
z"/>
<path fill="#FDBF9E" opacity="1.000000" stroke="none" 
	d="
M176.296600,217.380310 
	C178.795868,215.190292 181.223190,213.448700 184.088776,211.259903 
	C186.018829,209.246490 187.510620,207.680283 189.002411,206.114090 
	C193.644775,201.641953 198.287140,197.169830 202.980408,192.101624 
	C203.022369,191.336914 203.013428,191.168304 203.004471,190.999680 
	C203.310806,188.841049 203.617142,186.682434 203.891510,183.778671 
	C205.521317,183.630356 207.183090,184.227173 209.623596,185.103668 
	C211.645660,183.767136 214.424423,181.930481 217.550507,179.864243 
	C217.281082,181.547577 217.104721,182.649551 216.928345,183.751526 
	C214.256653,185.317276 212.819580,187.000778 215.713821,189.823898 
	C216.965408,191.044724 217.709091,192.786270 218.542206,194.073105 
	C212.050827,201.894852 205.630890,209.630524 198.860626,217.782074 
	C198.240692,218.398346 198.062607,218.660843 197.976059,218.985443 
	C196.400131,220.747375 194.824188,222.509293 192.813599,224.715454 
	C191.221527,226.702927 190.064133,228.246155 188.906754,229.789383 
	C185.226669,231.148407 181.546600,232.507431 177.480133,233.877518 
	C176.804031,228.535294 176.514328,223.182022 176.296600,217.380310 
z"/>
<path fill="#51AE55" opacity="1.000000" stroke="none" 
	d="
M153.756393,233.673370 
	C152.926788,233.949081 151.884354,233.984207 150.451538,234.039124 
	C151.221954,233.850189 152.382751,233.641495 153.756393,233.673370 
z"/>
<path fill="#889891" opacity="1.000000" stroke="none" 
	d="
M149.786011,244.949493 
	C149.636215,245.319595 149.198135,245.089722 149.052368,244.889618 
	C149.097763,244.202759 149.288925,243.716003 149.720871,243.107941 
	C149.953033,243.517532 149.944412,244.048462 149.786011,244.949493 
z"/>
<path fill="#4FB052" opacity="1.000000" stroke="none" 
	d="
M201.001831,314.062012 
	C220.296494,314.128143 239.092163,314.294464 257.886047,314.178406 
	C261.800415,314.154236 263.307831,315.275787 263.067627,319.267548 
	C262.778290,324.075073 262.859314,328.913116 262.974670,333.733337 
	C263.036713,336.327026 261.999969,337.300873 259.472595,337.288727 
	C235.188934,337.171906 210.904495,337.153656 186.622925,336.875122 
	C185.404144,336.861115 183.254730,334.781067 183.169617,333.550232 
	C182.803391,328.254517 183.115723,322.915649 183.040268,317.594513 
	C182.999557,314.722717 184.329285,313.856720 187.031204,313.956604 
	C191.516708,314.122406 196.011398,314.039856 201.001831,314.062012 
M210.901093,324.449249 
	C210.963806,324.920319 211.009140,325.394775 211.099747,325.860413 
	C211.127014,326.000458 211.264725,326.134613 211.383408,326.233673 
	C211.431671,326.273987 211.564011,326.213501 211.695160,326.193085 
	C211.695160,324.781830 211.695160,323.370667 211.695160,321.959503 
	C211.516724,321.952637 211.338287,321.945801 211.159851,321.938965 
	C211.072433,322.540161 210.985031,323.141357 210.901093,324.449249 
z"/>
<path fill="#57B45A" opacity="1.000000" stroke="none" 
	d="
M246.741394,136.097412 
	C252.064194,135.923096 249.092178,139.504593 250.234009,141.695526 
	C234.032257,141.695526 218.324417,141.695526 202.321030,141.695526 
	C202.321030,139.924377 202.321030,138.209686 202.321030,136.100754 
	C217.070480,136.100754 231.669525,136.100754 246.741394,136.097412 
z"/>
<path fill="#62B864" opacity="1.000000" stroke="none" 
	d="
M217.405304,183.759918 
	C217.104721,182.649551 217.281082,181.547577 217.550507,179.864243 
	C214.424423,181.930481 211.645660,183.767136 209.623596,185.103668 
	C207.183090,184.227173 205.521317,183.630356 203.828751,183.353729 
	C196.492737,183.673920 189.187531,183.673920 181.418823,183.673920 
	C181.259537,182.236816 181.110062,180.888321 180.925934,179.227051 
	C197.387863,179.227051 213.444382,179.227051 229.754303,179.227051 
	C229.754303,180.628571 229.754303,181.882050 229.754303,183.768295 
	C225.766647,183.768295 221.824448,183.768295 217.405304,183.759918 
z"/>
<path fill="#62B864" opacity="1.000000" stroke="none" 
	d="
M189.389404,229.799622 
	C190.064133,228.246155 191.221527,226.702927 192.672546,225.007187 
	C204.760803,224.854675 216.555435,224.854675 228.705383,224.854675 
	C228.810516,226.655075 228.891586,228.043076 228.994766,229.809875 
	C215.739059,229.809875 202.805557,229.809875 189.389404,229.799622 
z"/>
<path fill="#52B055" opacity="1.000000" stroke="none" 
	d="
M181.069260,162.000031 
	C187.343445,162.001541 193.128662,162.001541 199.323639,162.001541 
	C199.441147,163.588547 199.543228,164.966919 199.671005,166.692596 
	C190.776398,166.692596 182.245300,166.692596 173.323914,166.692596 
	C173.221924,165.379822 173.114532,163.997620 172.959213,161.998505 
	C175.717804,161.998505 178.149048,161.998505 181.069260,162.000031 
z"/>
<path fill="#57B45A" opacity="1.000000" stroke="none" 
	d="
M220.148010,130.496429 
	C221.326385,128.338333 222.448334,126.586082 223.768005,124.525002 
	C223.580719,123.770653 222.701080,122.283203 223.096954,121.320023 
	C223.633377,120.014946 225.015656,118.516739 226.286362,118.235100 
	C227.208527,118.030716 229.638458,120.139732 229.522369,120.408806 
	C227.556229,124.965927 232.469360,127.466278 232.927704,132.451630 
	C228.374725,131.902069 224.233139,131.402161 220.148010,130.496429 
z"/>
<path fill="#52B055" opacity="1.000000" stroke="none" 
	d="
M186.001373,253.007980 
	C189.809357,253.011627 193.133347,252.856293 196.426834,253.104874 
	C197.532440,253.188339 198.560425,254.300201 199.623871,254.941986 
	C198.597748,255.632462 197.584549,256.898071 196.543442,256.921478 
	C188.945312,257.092255 181.341583,257.013458 173.561508,257.013458 
	C172.524567,254.269547 172.886505,252.845459 176.066910,252.962997 
	C179.209351,253.079147 182.358978,253.000183 186.001373,253.007980 
z"/>
<path fill="#EEEEEE" opacity="1.000000" stroke="none" 
	d="
M175.291687,174.681976 
	C175.975708,174.292053 176.936615,174.017288 177.897675,174.016708 
	C210.528183,173.997345 243.158722,174.003281 275.789246,174.012146 
	C276.432495,174.012329 277.075714,174.090729 277.712006,174.924988 
	C243.664215,174.924988 209.616425,174.924988 175.291687,174.681976 
z"/>
<path fill="#EEEEEE" opacity="1.000000" stroke="none" 
	d="
M253.999954,264.999359 
	C227.424240,265.000153 201.348511,265.000153 175.272781,265.000153 
	C175.272263,264.782196 175.271759,264.564209 175.271240,264.346252 
	C208.751144,264.346252 242.231049,264.346252 275.710968,264.346252 
	C275.718781,264.563690 275.726624,264.781128 275.734467,264.998566 
	C268.656311,264.998566 261.578125,264.998566 253.999954,264.999359 
z"/>
<path fill="#F2F2F2" opacity="1.000000" stroke="none" 
	d="
M198.446823,218.991714 
	C198.062607,218.660843 198.240692,218.398346 198.727234,218.092804 
	C223.891144,217.987656 248.838135,217.987656 273.785126,217.987656 
	C273.786377,218.324432 273.787628,218.661209 273.788910,218.997986 
	C248.831802,218.997986 223.874695,218.997986 198.446823,218.991714 
z"/>
<path fill="#4FB052" opacity="1.000000" stroke="none" 
	d="
M188.532867,206.076874 
	C187.510620,207.680283 186.018829,209.246490 184.233154,210.969254 
	C180.503067,211.125809 177.066864,211.125809 173.285675,211.125809 
	C173.204407,209.311676 173.142639,207.933212 173.057800,206.039673 
	C178.261688,206.039673 183.162491,206.039673 188.532867,206.076874 
z"/>
<path fill="#F2F2F2" opacity="1.000000" stroke="none" 
	d="
M187.095718,234.998779 
	C199.654587,234.998779 211.728943,234.998779 223.803299,234.998779 
	C223.803345,235.227341 223.803406,235.455917 223.803452,235.684479 
	C208.928741,235.684479 194.054047,235.684479 179.179337,235.684479 
	C179.169510,235.455917 179.159683,235.227341 179.149857,234.998779 
	C181.636978,234.998779 184.124084,234.998779 187.095718,234.998779 
z"/>
<path fill="#F2F2F2" opacity="1.000000" stroke="none" 
	d="
M180.263763,281.000244 
	C187.795898,281.000641 194.865372,281.000641 201.934830,281.000641 
	C201.933029,281.244476 201.931244,281.488342 201.929443,281.732178 
	C192.966766,281.732178 184.004074,281.732178 175.041382,281.732178 
	C175.038971,281.488068 175.036560,281.243958 175.034149,280.999847 
	C176.623123,280.999847 178.212097,280.999847 180.263763,281.000244 
z"/>
<path fill="#F2F2F2" opacity="1.000000" stroke="none" 
	d="
M202.535400,191.000275 
	C203.013428,191.168304 203.022369,191.336914 202.995392,191.756348 
	C193.697662,192.007156 184.435852,192.007156 175.174057,192.007156 
	C175.171112,191.671722 175.168167,191.336304 175.165222,191.000870 
	C184.132248,191.000870 193.099289,191.000870 202.535400,191.000275 
z"/>
<path fill="#4FAE52" opacity="1.000000" stroke="none" 
	d="
M286.242828,66.179581 
	C286.041351,65.406075 286.096100,64.803574 286.299988,63.767845 
	C287.009308,64.601646 287.569519,65.868668 288.216675,67.473824 
	C287.702087,67.324829 287.100555,66.837708 286.242828,66.179581 
z"/>
<path fill="#4FAE52" opacity="1.000000" stroke="none" 
	d="
M286.505768,62.374191 
	C286.287140,62.821907 286.032043,62.884628 285.384003,62.978279 
	C285.072388,61.860733 285.153687,60.712265 285.431641,59.280647 
	C285.908630,59.994732 286.188995,60.991966 286.505768,62.374191 
z"/>
<path fill="#AFB4B6" opacity="1.000000" stroke="none" 
	d="
M210.899353,324.095917 
	C210.985031,323.141357 211.072433,322.540161 211.159851,321.938965 
	C211.338287,321.945801 211.516724,321.952637 211.695160,321.959503 
	C211.695160,323.370667 211.695160,324.781830 211.695160,326.193085 
	C211.564011,326.213501 211.431671,326.273987 211.383408,326.233673 
	C211.264725,326.134613 211.127014,326.000458 211.099747,325.860413 
	C211.009140,325.394775 210.963806,324.920319 210.899353,324.095917 
z"/>
</svg>