<svg width="48" height="48" viewBox="0 0 48 48" fill="none" xmlns="http://www.w3.org/2000/svg">
<mask id="path-1-inside-1_16_1455" fill="white">
<path d="M28.3117 23.6447C28.0709 23.6447 27.8473 23.5785 27.6487 23.472V23.4748C27.6487 23.8537 27.5014 24.2094 27.2343 24.4759C26.9671 24.7431 26.6116 24.8903 26.2332 24.8903C25.9889 24.8903 25.7625 24.8225 25.5617 24.7131C25.5415 25.0597 25.4029 25.3837 25.1558 25.6311C24.8886 25.8982 24.5331 26.0455 24.1545 26.0455C23.4022 26.0455 22.7913 25.4541 22.7473 24.7129C22.5145 24.8387 22.2513 24.9047 21.9799 24.8873C21.2398 24.8387 20.6603 24.1993 20.6603 23.4312V17.0646L19.9353 18.3206C19.6592 18.8009 19.1423 19.0992 18.5858 19.0992C18.3147 19.0992 18.0468 19.028 17.8095 18.8921C17.5141 18.7208 17.3028 18.4459 17.2149 18.117C17.1265 17.7878 17.1722 17.4436 17.3431 17.1486C17.3433 17.1486 19.715 13.0414 19.8597 12.7891C19.8769 12.7512 19.9259 12.6412 19.9676 12.5474C20.0075 12.4579 20.0416 12.366 20.0744 12.2737C20.7896 10.2544 22.5607 9.00004 24.6966 9.00004C27.4703 9.00004 29.7268 11.4469 29.7268 14.4546L29.727 22.229C29.727 22.6074 29.58 22.9629 29.3131 23.2303C29.0459 23.4975 28.6904 23.6447 28.3116 23.6447L28.3117 23.6447ZM24.6966 9.75218C22.8613 9.75218 21.3984 10.7888 20.7833 12.5252C20.744 12.6355 20.703 12.7457 20.6552 12.8532C20.5164 13.1644 20.5164 13.1644 20.4773 13.2091L20.4721 13.2047C20.2784 13.5701 19.7031 14.5664 17.9943 17.5251C17.9241 17.6464 17.9055 17.7873 17.9413 17.922C17.9776 18.0568 18.0645 18.1704 18.1849 18.2399C18.5586 18.4545 19.0703 18.316 19.2833 17.9449L20.7108 15.4734C20.7961 15.3262 20.9685 15.2539 21.1339 15.2986C21.2983 15.3427 21.4126 15.4918 21.4126 15.6619V23.4315C21.4126 23.798 21.6892 24.1144 22.0292 24.1368C22.2252 24.1472 22.408 24.0815 22.5454 23.9443C22.6702 23.8195 22.739 23.6531 22.739 23.4753V18.3939C22.739 18.1861 22.9075 18.0176 23.1153 18.0176C23.3231 18.0176 23.4915 18.1859 23.4915 18.3939L23.4913 24.6303C23.4913 24.9959 23.7889 25.2935 24.1545 25.2935C24.3321 25.2935 24.499 25.2247 24.6241 25.0998C24.7489 24.9747 24.8177 24.8079 24.8177 24.6303V18.3939C24.8177 18.1861 24.9859 18.0176 25.194 18.0176C25.4018 18.0176 25.5702 18.1858 25.5702 18.3939L25.57 23.4168V23.4752C25.57 23.8407 25.8675 24.1382 26.2334 24.1382C26.4108 24.1382 26.5772 24.0692 26.703 23.9438C26.8278 23.8192 26.8966 23.6529 26.8966 23.475V18.3936C26.8966 18.1858 27.0649 18.0174 27.2729 18.0174C27.4807 18.0174 27.6491 18.1856 27.6491 18.3936L27.6487 22.2292C27.6487 22.595 27.9462 22.8926 28.3116 22.8926C28.4895 22.8926 28.6558 22.8236 28.7807 22.699C28.906 22.5736 28.9746 22.4068 28.9746 22.2292L28.9748 14.4548C28.9748 11.8621 27.0557 9.75226 24.6966 9.75226L24.6966 9.75218Z"/>
</mask>
<path d="M28.3117 23.6447C28.0709 23.6447 27.8473 23.5785 27.6487 23.472V23.4748C27.6487 23.8537 27.5014 24.2094 27.2343 24.4759C26.9671 24.7431 26.6116 24.8903 26.2332 24.8903C25.9889 24.8903 25.7625 24.8225 25.5617 24.7131C25.5415 25.0597 25.4029 25.3837 25.1558 25.6311C24.8886 25.8982 24.5331 26.0455 24.1545 26.0455C23.4022 26.0455 22.7913 25.4541 22.7473 24.7129C22.5145 24.8387 22.2513 24.9047 21.9799 24.8873C21.2398 24.8387 20.6603 24.1993 20.6603 23.4312V17.0646L19.9353 18.3206C19.6592 18.8009 19.1423 19.0992 18.5858 19.0992C18.3147 19.0992 18.0468 19.028 17.8095 18.8921C17.5141 18.7208 17.3028 18.4459 17.2149 18.117C17.1265 17.7878 17.1722 17.4436 17.3431 17.1486C17.3433 17.1486 19.715 13.0414 19.8597 12.7891C19.8769 12.7512 19.9259 12.6412 19.9676 12.5474C20.0075 12.4579 20.0416 12.366 20.0744 12.2737C20.7896 10.2544 22.5607 9.00004 24.6966 9.00004C27.4703 9.00004 29.7268 11.4469 29.7268 14.4546L29.727 22.229C29.727 22.6074 29.58 22.9629 29.3131 23.2303C29.0459 23.4975 28.6904 23.6447 28.3116 23.6447L28.3117 23.6447ZM24.6966 9.75218C22.8613 9.75218 21.3984 10.7888 20.7833 12.5252C20.744 12.6355 20.703 12.7457 20.6552 12.8532C20.5164 13.1644 20.5164 13.1644 20.4773 13.2091L20.4721 13.2047C20.2784 13.5701 19.7031 14.5664 17.9943 17.5251C17.9241 17.6464 17.9055 17.7873 17.9413 17.922C17.9776 18.0568 18.0645 18.1704 18.1849 18.2399C18.5586 18.4545 19.0703 18.316 19.2833 17.9449L20.7108 15.4734C20.7961 15.3262 20.9685 15.2539 21.1339 15.2986C21.2983 15.3427 21.4126 15.4918 21.4126 15.6619V23.4315C21.4126 23.798 21.6892 24.1144 22.0292 24.1368C22.2252 24.1472 22.408 24.0815 22.5454 23.9443C22.6702 23.8195 22.739 23.6531 22.739 23.4753V18.3939C22.739 18.1861 22.9075 18.0176 23.1153 18.0176C23.3231 18.0176 23.4915 18.1859 23.4915 18.3939L23.4913 24.6303C23.4913 24.9959 23.7889 25.2935 24.1545 25.2935C24.3321 25.2935 24.499 25.2247 24.6241 25.0998C24.7489 24.9747 24.8177 24.8079 24.8177 24.6303V18.3939C24.8177 18.1861 24.9859 18.0176 25.194 18.0176C25.4018 18.0176 25.5702 18.1858 25.5702 18.3939L25.57 23.4168V23.4752C25.57 23.8407 25.8675 24.1382 26.2334 24.1382C26.4108 24.1382 26.5772 24.0692 26.703 23.9438C26.8278 23.8192 26.8966 23.6529 26.8966 23.475V18.3936C26.8966 18.1858 27.0649 18.0174 27.2729 18.0174C27.4807 18.0174 27.6491 18.1856 27.6491 18.3936L27.6487 22.2292C27.6487 22.595 27.9462 22.8926 28.3116 22.8926C28.4895 22.8926 28.6558 22.8236 28.7807 22.699C28.906 22.5736 28.9746 22.4068 28.9746 22.2292L28.9748 14.4548C28.9748 11.8621 27.0557 9.75226 24.6966 9.75226L24.6966 9.75218Z" fill="#4CAF4F" stroke="#4CAF4F" stroke-width="2.66667" mask="url(#path-1-inside-1_16_1455)"/>
<mask id="path-2-inside-2_16_1455" fill="white">
<path d="M13.5291 29.0481L18.9888 25.7728C19.6471 25.3775 20.4941 25.5455 20.9162 26.1554C21.0703 26.3776 21.149 26.6365 21.1613 26.9002C21.3648 26.7939 21.5863 26.7362 21.8117 26.7362C21.9272 26.7362 22.0431 26.7506 22.1576 26.7791C22.5244 26.8707 22.8335 27.0999 23.0279 27.4241C23.2225 27.7488 23.2793 28.1292 23.1877 28.4956C23.1031 28.8347 22.8969 29.12 22.6102 29.3158C22.8107 29.434 22.9836 29.5954 23.1066 29.8009C23.3012 30.1255 23.358 30.5058 23.2666 30.8726C23.1749 31.239 22.9457 31.5481 22.621 31.7429L22.6192 31.7441C22.8161 31.8622 22.986 32.0219 23.1076 32.2243C23.3024 32.5489 23.3592 32.9294 23.2675 33.2962C23.1756 33.6628 22.9464 33.9719 22.6222 34.1665L15.9558 38.1658C14.7116 38.912 13.2733 39.1695 11.9064 38.8903C10.5272 38.6085 9.38497 37.8158 8.69046 36.658C7.59138 34.8262 7.75609 32.662 9.11949 31.0102C9.18192 30.9348 9.24341 30.858 9.29925 30.7784C9.35839 30.6943 9.42742 30.5953 9.45098 30.5614C9.5921 30.3093 11.8949 26.1604 11.8946 26.1609C12.1272 25.7413 12.563 25.5038 13.0125 25.504C13.2222 25.504 13.4349 25.5556 13.6312 25.6645C13.8682 25.7969 14.0673 25.9898 14.2065 26.2224C14.4928 26.6995 14.5029 27.2965 14.2334 27.7797L13.5291 29.0481ZM13.5618 26.6092C13.4888 26.4874 13.3884 26.3903 13.2657 26.3215C13.012 26.1811 12.6925 26.2725 12.5528 26.5253C10.905 29.4938 10.3434 30.5055 10.1266 30.8655L10.1315 30.8667C10.1134 30.927 10.1134 30.927 9.91502 31.2104C9.84764 31.3063 9.77437 31.3984 9.69969 31.4891C8.52732 32.9095 8.39119 34.697 9.33521 36.271C9.91997 37.2459 10.8864 37.9143 12.0566 38.1532C13.2395 38.3938 14.4863 38.1699 15.5684 37.5207L22.2355 33.5212C22.3876 33.43 22.4951 33.2851 22.538 33.1134C22.5808 32.9418 22.5542 32.7635 22.4628 32.6113C22.2748 32.298 21.8665 32.195 21.5532 32.3837L18.2642 34.3569C18.0861 34.4638 17.8548 34.4063 17.748 34.228C17.6411 34.0499 17.6988 33.8187 17.8769 33.7118L21.1661 31.7386L22.2343 31.0978C22.3865 31.0064 22.4941 30.8615 22.537 30.6902C22.5799 30.5185 22.5533 30.3399 22.4619 30.1879C22.2736 29.8744 21.8653 29.7723 21.5522 29.9604L17.1948 32.5743C17.0163 32.6815 16.7856 32.6236 16.6787 32.4455C16.5717 32.2673 16.6296 32.0362 16.8075 31.9293L22.1554 28.7211C22.3076 28.6297 22.415 28.4851 22.4579 28.3133C22.5007 28.1418 22.4741 27.9635 22.3829 27.8113C22.2918 27.6593 22.1469 27.5519 21.9751 27.509C21.8024 27.4661 21.6248 27.4927 21.4731 27.5837L20.4831 28.1776C20.4829 28.1776 20.4829 28.1779 20.4826 28.1779H20.4824L16.1252 30.7918C15.9467 30.8993 15.7158 30.8413 15.6091 30.663C15.5021 30.4849 15.5601 30.2537 15.7379 30.1468L20.0953 27.5328C20.2475 27.4414 20.3552 27.2965 20.398 27.1252C20.4452 26.9372 20.4094 26.745 20.2977 26.5838C20.104 26.3037 19.6898 26.2292 19.3758 26.4179L12.7136 30.4147C12.5678 30.5018 12.3809 30.4806 12.2587 30.3626C12.1362 30.2443 12.1086 30.0584 12.1911 29.9098L13.5764 27.4138C13.7154 27.1643 13.71 26.8562 13.5618 26.6093L13.5618 26.6092Z"/>
</mask>
<path d="M13.5291 29.0481L18.9888 25.7728C19.6471 25.3775 20.4941 25.5455 20.9162 26.1554C21.0703 26.3776 21.149 26.6365 21.1613 26.9002C21.3648 26.7939 21.5863 26.7362 21.8117 26.7362C21.9272 26.7362 22.0431 26.7506 22.1576 26.7791C22.5244 26.8707 22.8335 27.0999 23.0279 27.4241C23.2225 27.7488 23.2793 28.1292 23.1877 28.4956C23.1031 28.8347 22.8969 29.12 22.6102 29.3158C22.8107 29.434 22.9836 29.5954 23.1066 29.8009C23.3012 30.1255 23.358 30.5058 23.2666 30.8726C23.1749 31.239 22.9457 31.5481 22.621 31.7429L22.6192 31.7441C22.8161 31.8622 22.986 32.0219 23.1076 32.2243C23.3024 32.5489 23.3592 32.9294 23.2675 33.2962C23.1756 33.6628 22.9464 33.9719 22.6222 34.1665L15.9558 38.1658C14.7116 38.912 13.2733 39.1695 11.9064 38.8903C10.5272 38.6085 9.38497 37.8158 8.69046 36.658C7.59138 34.8262 7.75609 32.662 9.11949 31.0102C9.18192 30.9348 9.24341 30.858 9.29925 30.7784C9.35839 30.6943 9.42742 30.5953 9.45098 30.5614C9.5921 30.3093 11.8949 26.1604 11.8946 26.1609C12.1272 25.7413 12.563 25.5038 13.0125 25.504C13.2222 25.504 13.4349 25.5556 13.6312 25.6645C13.8682 25.7969 14.0673 25.9898 14.2065 26.2224C14.4928 26.6995 14.5029 27.2965 14.2334 27.7797L13.5291 29.0481ZM13.5618 26.6092C13.4888 26.4874 13.3884 26.3903 13.2657 26.3215C13.012 26.1811 12.6925 26.2725 12.5528 26.5253C10.905 29.4938 10.3434 30.5055 10.1266 30.8655L10.1315 30.8667C10.1134 30.927 10.1134 30.927 9.91502 31.2104C9.84764 31.3063 9.77437 31.3984 9.69969 31.4891C8.52732 32.9095 8.39119 34.697 9.33521 36.271C9.91997 37.2459 10.8864 37.9143 12.0566 38.1532C13.2395 38.3938 14.4863 38.1699 15.5684 37.5207L22.2355 33.5212C22.3876 33.43 22.4951 33.2851 22.538 33.1134C22.5808 32.9418 22.5542 32.7635 22.4628 32.6113C22.2748 32.298 21.8665 32.195 21.5532 32.3837L18.2642 34.3569C18.0861 34.4638 17.8548 34.4063 17.748 34.228C17.6411 34.0499 17.6988 33.8187 17.8769 33.7118L21.1661 31.7386L22.2343 31.0978C22.3865 31.0064 22.4941 30.8615 22.537 30.6902C22.5799 30.5185 22.5533 30.3399 22.4619 30.1879C22.2736 29.8744 21.8653 29.7723 21.5522 29.9604L17.1948 32.5743C17.0163 32.6815 16.7856 32.6236 16.6787 32.4455C16.5717 32.2673 16.6296 32.0362 16.8075 31.9293L22.1554 28.7211C22.3076 28.6297 22.415 28.4851 22.4579 28.3133C22.5007 28.1418 22.4741 27.9635 22.3829 27.8113C22.2918 27.6593 22.1469 27.5519 21.9751 27.509C21.8024 27.4661 21.6248 27.4927 21.4731 27.5837L20.4831 28.1776C20.4829 28.1776 20.4829 28.1779 20.4826 28.1779H20.4824L16.1252 30.7918C15.9467 30.8993 15.7158 30.8413 15.6091 30.663C15.5021 30.4849 15.5601 30.2537 15.7379 30.1468L20.0953 27.5328C20.2475 27.4414 20.3552 27.2965 20.398 27.1252C20.4452 26.9372 20.4094 26.745 20.2977 26.5838C20.104 26.3037 19.6898 26.2292 19.3758 26.4179L12.7136 30.4147C12.5678 30.5018 12.3809 30.4806 12.2587 30.3626C12.1362 30.2443 12.1086 30.0584 12.1911 29.9098L13.5764 27.4138C13.7154 27.1643 13.71 26.8562 13.5618 26.6093L13.5618 26.6092Z" fill="#4CAF4F" stroke="#4CAF4F" stroke-width="2.66667" mask="url(#path-2-inside-2_16_1455)"/>
<mask id="path-3-inside-3_16_1455" fill="white">
<path d="M39.6181 36.6577C38.9238 37.8157 37.7819 38.6083 36.4025 38.8901C35.0353 39.1688 33.5974 38.9117 32.353 38.1656L25.686 34.1661C25.3616 33.9715 25.1321 33.6624 25.0402 33.2953C24.949 32.9289 25.006 32.5484 25.2004 32.2243C25.3217 32.0216 25.4918 31.8619 25.689 31.7439L25.6871 31.7427C25.3627 31.5481 25.1333 31.239 25.0419 30.8724C24.95 30.5058 25.007 30.125 25.2016 29.8004C25.3269 29.5919 25.4987 29.4289 25.6947 29.3132C25.4101 29.1174 25.2051 28.8331 25.1208 28.4957C25.0289 28.1288 25.0859 27.7483 25.2805 27.4242C25.4749 27.0997 25.7842 26.8705 26.1508 26.7789C26.2653 26.7501 26.3815 26.736 26.4965 26.736C26.7222 26.7362 26.9436 26.7935 27.1472 26.9C27.1597 26.6363 27.2381 26.3774 27.3922 26.1552C27.8146 25.5458 28.6609 25.3771 29.3201 25.7726L34.7796 29.0474L34.0759 27.7799C33.8059 27.296 33.8158 26.699 34.1021 26.2216C34.2415 25.9893 34.4408 25.7964 34.679 25.6628C34.8748 25.5544 35.0869 25.5031 35.296 25.5031C35.7453 25.5033 36.1817 25.7403 36.4139 26.1599C37.2235 27.6185 38.7511 30.3694 38.8585 30.5614C38.8813 30.5946 38.9504 30.6936 39.0095 30.7777C39.0658 30.8575 39.1266 30.9339 39.1895 31.0097C40.5527 32.6622 40.7171 34.8262 39.6181 36.6578L39.6181 36.6577ZM38.6091 31.4892C38.5341 31.3985 38.4606 31.3059 38.3937 31.2105C38.1902 30.9217 38.185 30.9141 38.1697 30.8385C37.9317 30.4448 37.3512 29.3997 35.7555 26.5249C35.6156 26.2726 35.2975 26.1805 35.0443 26.3204C34.9196 26.3901 34.8195 26.4874 34.7465 26.6093C34.5985 26.8559 34.5928 27.1641 34.7326 27.4143L36.1174 29.9095C36.2001 30.0584 36.1725 30.2441 36.0503 30.3623C35.9282 30.4808 35.7416 30.5016 35.5951 30.4144L28.9329 26.4177C28.6189 26.2295 28.2049 26.3032 28.0108 26.5836C27.8991 26.7447 27.8635 26.937 27.9102 27.1247C27.9531 27.2963 28.0607 27.4409 28.2132 27.5323C28.2136 27.5326 28.2139 27.533 28.2143 27.5333L32.5703 30.1465C32.7484 30.2535 32.8062 30.4844 32.6992 30.6627C32.5922 30.8406 32.3616 30.8988 32.183 30.7916L26.8352 27.5835C26.6834 27.4925 26.5048 27.4657 26.3333 27.5088C26.1613 27.5517 26.0167 27.6591 25.9255 27.8115C25.8341 27.9635 25.8077 28.1418 25.8501 28.3133C25.893 28.4849 26.0007 28.6297 26.1529 28.7212L27.1935 29.3453L31.5005 31.9293C31.6786 32.0363 31.7363 32.2672 31.6293 32.4455C31.5224 32.6234 31.2917 32.6814 31.1131 32.5744L26.7562 29.9604C26.4429 29.7719 26.0348 29.8742 25.8464 30.188C25.755 30.3402 25.7286 30.5186 25.771 30.6901C25.8139 30.8616 25.9215 31.0062 26.0739 31.0979L27.1422 31.7387L30.4308 33.7119C30.609 33.8188 30.6667 34.0497 30.5597 34.2281C30.4528 34.4059 30.2221 34.4644 30.0435 34.3569L26.7548 32.3838C26.6031 32.2928 26.4252 32.266 26.2528 32.3091C26.0813 32.352 25.9361 32.4594 25.845 32.6114C25.7538 32.7636 25.7272 32.9421 25.7696 33.1134C25.8124 33.2849 25.9201 33.4296 26.0725 33.5212L32.7395 37.5207C33.8214 38.1698 35.0691 38.3945 36.2514 38.1533C37.4213 37.9144 38.3878 37.246 38.9725 36.2711C39.9175 34.6968 39.7816 32.9091 38.6095 31.4892L38.6091 31.4892Z"/>
</mask>
<path d="M39.6181 36.6577C38.9238 37.8157 37.7819 38.6083 36.4025 38.8901C35.0353 39.1688 33.5974 38.9117 32.353 38.1656L25.686 34.1661C25.3616 33.9715 25.1321 33.6624 25.0402 33.2953C24.949 32.9289 25.006 32.5484 25.2004 32.2243C25.3217 32.0216 25.4918 31.8619 25.689 31.7439L25.6871 31.7427C25.3627 31.5481 25.1333 31.239 25.0419 30.8724C24.95 30.5058 25.007 30.125 25.2016 29.8004C25.3269 29.5919 25.4987 29.4289 25.6947 29.3132C25.4101 29.1174 25.2051 28.8331 25.1208 28.4957C25.0289 28.1288 25.0859 27.7483 25.2805 27.4242C25.4749 27.0997 25.7842 26.8705 26.1508 26.7789C26.2653 26.7501 26.3815 26.736 26.4965 26.736C26.7222 26.7362 26.9436 26.7935 27.1472 26.9C27.1597 26.6363 27.2381 26.3774 27.3922 26.1552C27.8146 25.5458 28.6609 25.3771 29.3201 25.7726L34.7796 29.0474L34.0759 27.7799C33.8059 27.296 33.8158 26.699 34.1021 26.2216C34.2415 25.9893 34.4408 25.7964 34.679 25.6628C34.8748 25.5544 35.0869 25.5031 35.296 25.5031C35.7453 25.5033 36.1817 25.7403 36.4139 26.1599C37.2235 27.6185 38.7511 30.3694 38.8585 30.5614C38.8813 30.5946 38.9504 30.6936 39.0095 30.7777C39.0658 30.8575 39.1266 30.9339 39.1895 31.0097C40.5527 32.6622 40.7171 34.8262 39.6181 36.6578L39.6181 36.6577ZM38.6091 31.4892C38.5341 31.3985 38.4606 31.3059 38.3937 31.2105C38.1902 30.9217 38.185 30.9141 38.1697 30.8385C37.9317 30.4448 37.3512 29.3997 35.7555 26.5249C35.6156 26.2726 35.2975 26.1805 35.0443 26.3204C34.9196 26.3901 34.8195 26.4874 34.7465 26.6093C34.5985 26.8559 34.5928 27.1641 34.7326 27.4143L36.1174 29.9095C36.2001 30.0584 36.1725 30.2441 36.0503 30.3623C35.9282 30.4808 35.7416 30.5016 35.5951 30.4144L28.9329 26.4177C28.6189 26.2295 28.2049 26.3032 28.0108 26.5836C27.8991 26.7447 27.8635 26.937 27.9102 27.1247C27.9531 27.2963 28.0607 27.4409 28.2132 27.5323C28.2136 27.5326 28.2139 27.533 28.2143 27.5333L32.5703 30.1465C32.7484 30.2535 32.8062 30.4844 32.6992 30.6627C32.5922 30.8406 32.3616 30.8988 32.183 30.7916L26.8352 27.5835C26.6834 27.4925 26.5048 27.4657 26.3333 27.5088C26.1613 27.5517 26.0167 27.6591 25.9255 27.8115C25.8341 27.9635 25.8077 28.1418 25.8501 28.3133C25.893 28.4849 26.0007 28.6297 26.1529 28.7212L27.1935 29.3453L31.5005 31.9293C31.6786 32.0363 31.7363 32.2672 31.6293 32.4455C31.5224 32.6234 31.2917 32.6814 31.1131 32.5744L26.7562 29.9604C26.4429 29.7719 26.0348 29.8742 25.8464 30.188C25.755 30.3402 25.7286 30.5186 25.771 30.6901C25.8139 30.8616 25.9215 31.0062 26.0739 31.0979L27.1422 31.7387L30.4308 33.7119C30.609 33.8188 30.6667 34.0497 30.5597 34.2281C30.4528 34.4059 30.2221 34.4644 30.0435 34.3569L26.7548 32.3838C26.6031 32.2928 26.4252 32.266 26.2528 32.3091C26.0813 32.352 25.9361 32.4594 25.845 32.6114C25.7538 32.7636 25.7272 32.9421 25.7696 33.1134C25.8124 33.2849 25.9201 33.4296 26.0725 33.5212L32.7395 37.5207C33.8214 38.1698 35.0691 38.3945 36.2514 38.1533C37.4213 37.9144 38.3878 37.246 38.9725 36.2711C39.9175 34.6968 39.7816 32.9091 38.6095 31.4892L38.6091 31.4892Z" fill="#4CAF4F" stroke="#4CAF4F" stroke-width="2.66667" mask="url(#path-3-inside-3_16_1455)"/>
</svg>
