<svg width="44" height="30" viewBox="0 0 44 30" fill="none" xmlns="http://www.w3.org/2000/svg">
<path d="M23.4828 16.4174L16.7441 27.9585L10.0055 16.4174H23.4828ZM25.288 15.3859H8.193L16.7441 29.9999L25.288 15.3859Z" fill="white"/>
<path d="M35.1987 2.06296L41.9373 13.604H28.4601L35.1987 2.06296ZM35.1987 0L26.6475 14.6139H43.7499L35.1987 0Z" fill="white"/>
<path d="M0 0L7.16985 12.926L15.0047 0.324575L0 0Z" fill="#4CAF4F"/>
<path d="M16.7444 1.13226L24.2651 13.9861H9.20912L16.7444 1.13226Z" fill="#4CAF4F"/>
<path d="M26.2018 16.7926L33.7297 29.9999H18.3157L25.9679 16.7926H26.2018Z" fill="#4CAF4F"/>
<path d="M27.8315 15.9918L35.1987 28.9971L42.6681 15.9918H27.8315Z" fill="#4CAF4F"/>
</svg>
