<svg width="48" height="48" viewBox="0 0 48 48" fill="none" xmlns="http://www.w3.org/2000/svg">
<mask id="path-1-inside-1_16_1460" fill="white">
<path d="M24.225 29.4188C26.1085 27.8343 27.4592 25.7089 28.094 23.3308C28.7288 20.9528 28.617 18.437 27.7737 16.1246C26.9304 13.8122 25.3965 11.8151 23.3798 10.4039C21.3631 8.99281 18.9613 8.23593 16.5 8.23593C14.0386 8.23593 11.6368 8.99281 9.62016 10.4039C7.60349 11.8151 6.06954 13.8122 5.22625 16.1246C4.38297 18.437 4.27115 20.9528 4.90595 23.3308C5.54075 25.7089 6.89147 27.8343 8.77498 29.4188C5.72031 30.8011 3.09171 32.9765 1.16248 35.7188C0.82008 36.2063 0.685035 36.8098 0.78697 37.3968C0.888905 37.9838 1.2195 38.5064 1.70623 38.85C2.08358 39.1197 2.53616 39.264 2.99998 39.2625C3.36075 39.2635 3.7164 39.1771 4.03643 39.0105C4.35646 38.844 4.63133 38.6023 4.83748 38.3063C6.15208 36.4339 7.89816 34.9056 9.92811 33.8505C11.9581 32.7954 14.2122 32.2446 16.5 32.2446C18.7878 32.2446 21.0419 32.7954 23.0719 33.8505C25.1018 34.9056 26.8479 36.4339 28.1625 38.3063C28.3255 38.5638 28.5391 38.7856 28.7904 38.9581C29.0417 39.1307 29.3254 39.2503 29.6243 39.3099C29.9233 39.3694 30.2312 39.3676 30.5294 39.3045C30.8276 39.2414 31.1099 39.1184 31.3592 38.9429C31.6084 38.7675 31.8194 38.5432 31.9793 38.2837C32.1392 38.0242 32.2448 37.7349 32.2895 37.4334C32.3342 37.1319 32.3172 36.8244 32.2395 36.5297C32.1618 36.2349 32.025 35.959 31.8375 35.7188C29.9083 32.9765 27.2797 30.8011 24.225 29.4188ZM8.99998 20.25C8.99998 18.7667 9.43985 17.3166 10.264 16.0832C11.0881 14.8499 12.2594 13.8886 13.6299 13.3209C15.0003 12.7533 16.5083 12.6047 17.9632 12.8941C19.418 13.1835 20.7544 13.8978 21.8033 14.9467C22.8522 15.9956 23.5665 17.332 23.8559 18.7868C24.1453 20.2417 23.9967 21.7497 23.4291 23.1201C22.8614 24.4906 21.9001 25.6619 20.6668 26.486C19.4334 27.3101 17.9833 27.75 16.5 27.75C14.5109 27.75 12.6032 26.9598 11.1967 25.5533C9.79016 24.1468 8.99998 22.2391 8.99998 20.25ZM46.575 38.85C46.1976 39.1197 45.7451 39.264 45.2812 39.2625C44.921 39.2604 44.5665 39.1726 44.247 39.0063C43.9275 38.8401 43.6521 38.6001 43.4437 38.3063C42.1263 36.4372 40.3795 34.9116 38.3501 33.8577C36.3207 32.8039 34.068 32.2525 31.7812 32.25C31.1845 32.25 30.6122 32.013 30.1902 31.591C29.7683 31.169 29.5312 30.5967 29.5312 30C29.5312 29.4033 29.7683 28.831 30.1902 28.409C30.6122 27.9871 31.1845 27.75 31.7812 27.75C33.7704 27.75 35.678 26.9598 37.0845 25.5533C38.4911 24.1468 39.2812 22.2391 39.2812 20.25C39.2812 18.2609 38.4911 16.3532 37.0845 14.9467C35.678 13.5402 33.7704 12.75 31.7812 12.75C31.0964 12.7487 30.4148 12.8434 29.7562 13.0313C29.4703 13.1166 29.1702 13.1441 28.8734 13.1123C28.5767 13.0806 28.2893 12.9901 28.0279 12.8461C27.7664 12.7022 27.5363 12.5077 27.3507 12.2739C27.1652 12.0402 27.028 11.7719 26.9472 11.4846C26.8664 11.1973 26.8435 10.8968 26.8799 10.6006C26.9163 10.3044 27.0113 10.0184 27.1593 9.75931C27.3073 9.50016 27.5053 9.27305 27.742 9.09119C27.9786 8.90933 28.249 8.77636 28.5375 8.70001C29.5925 8.39965 30.6843 8.24819 31.7812 8.25001C34.2442 8.24286 36.6496 8.99495 38.6698 10.4039C40.69 11.8128 42.2269 13.8101 43.0713 16.1239C43.9156 18.4377 44.0264 20.9554 43.3884 23.3344C42.7505 25.7133 41.3949 27.8379 39.5062 29.4188C42.5609 30.8011 45.1895 32.9765 47.1187 35.7188C47.2907 35.9593 47.4132 36.2317 47.479 36.52C47.5447 36.8083 47.5526 37.1068 47.502 37.3981C47.4514 37.6895 47.3434 37.9679 47.1842 38.2171C47.0251 38.4664 46.818 38.6815 46.575 38.85Z"/>
</mask>
<path d="M24.225 29.4188C26.1085 27.8343 27.4592 25.7089 28.094 23.3308C28.7288 20.9528 28.617 18.437 27.7737 16.1246C26.9304 13.8122 25.3965 11.8151 23.3798 10.4039C21.3631 8.99281 18.9613 8.23593 16.5 8.23593C14.0386 8.23593 11.6368 8.99281 9.62016 10.4039C7.60349 11.8151 6.06954 13.8122 5.22625 16.1246C4.38297 18.437 4.27115 20.9528 4.90595 23.3308C5.54075 25.7089 6.89147 27.8343 8.77498 29.4188C5.72031 30.8011 3.09171 32.9765 1.16248 35.7188C0.82008 36.2063 0.685035 36.8098 0.78697 37.3968C0.888905 37.9838 1.2195 38.5064 1.70623 38.85C2.08358 39.1197 2.53616 39.264 2.99998 39.2625C3.36075 39.2635 3.7164 39.1771 4.03643 39.0105C4.35646 38.844 4.63133 38.6023 4.83748 38.3063C6.15208 36.4339 7.89816 34.9056 9.92811 33.8505C11.9581 32.7954 14.2122 32.2446 16.5 32.2446C18.7878 32.2446 21.0419 32.7954 23.0719 33.8505C25.1018 34.9056 26.8479 36.4339 28.1625 38.3063C28.3255 38.5638 28.5391 38.7856 28.7904 38.9581C29.0417 39.1307 29.3254 39.2503 29.6243 39.3099C29.9233 39.3694 30.2312 39.3676 30.5294 39.3045C30.8276 39.2414 31.1099 39.1184 31.3592 38.9429C31.6084 38.7675 31.8194 38.5432 31.9793 38.2837C32.1392 38.0242 32.2448 37.7349 32.2895 37.4334C32.3342 37.1319 32.3172 36.8244 32.2395 36.5297C32.1618 36.2349 32.025 35.959 31.8375 35.7188C29.9083 32.9765 27.2797 30.8011 24.225 29.4188ZM8.99998 20.25C8.99998 18.7667 9.43985 17.3166 10.264 16.0832C11.0881 14.8499 12.2594 13.8886 13.6299 13.3209C15.0003 12.7533 16.5083 12.6047 17.9632 12.8941C19.418 13.1835 20.7544 13.8978 21.8033 14.9467C22.8522 15.9956 23.5665 17.332 23.8559 18.7868C24.1453 20.2417 23.9967 21.7497 23.4291 23.1201C22.8614 24.4906 21.9001 25.6619 20.6668 26.486C19.4334 27.3101 17.9833 27.75 16.5 27.75C14.5109 27.75 12.6032 26.9598 11.1967 25.5533C9.79016 24.1468 8.99998 22.2391 8.99998 20.25ZM46.575 38.85C46.1976 39.1197 45.7451 39.264 45.2812 39.2625C44.921 39.2604 44.5665 39.1726 44.247 39.0063C43.9275 38.8401 43.6521 38.6001 43.4437 38.3063C42.1263 36.4372 40.3795 34.9116 38.3501 33.8577C36.3207 32.8039 34.068 32.2525 31.7812 32.25C31.1845 32.25 30.6122 32.013 30.1902 31.591C29.7683 31.169 29.5312 30.5967 29.5312 30C29.5312 29.4033 29.7683 28.831 30.1902 28.409C30.6122 27.9871 31.1845 27.75 31.7812 27.75C33.7704 27.75 35.678 26.9598 37.0845 25.5533C38.4911 24.1468 39.2812 22.2391 39.2812 20.25C39.2812 18.2609 38.4911 16.3532 37.0845 14.9467C35.678 13.5402 33.7704 12.75 31.7812 12.75C31.0964 12.7487 30.4148 12.8434 29.7562 13.0313C29.4703 13.1166 29.1702 13.1441 28.8734 13.1123C28.5767 13.0806 28.2893 12.9901 28.0279 12.8461C27.7664 12.7022 27.5363 12.5077 27.3507 12.2739C27.1652 12.0402 27.028 11.7719 26.9472 11.4846C26.8664 11.1973 26.8435 10.8968 26.8799 10.6006C26.9163 10.3044 27.0113 10.0184 27.1593 9.75931C27.3073 9.50016 27.5053 9.27305 27.742 9.09119C27.9786 8.90933 28.249 8.77636 28.5375 8.70001C29.5925 8.39965 30.6843 8.24819 31.7812 8.25001C34.2442 8.24286 36.6496 8.99495 38.6698 10.4039C40.69 11.8128 42.2269 13.8101 43.0713 16.1239C43.9156 18.4377 44.0264 20.9554 43.3884 23.3344C42.7505 25.7133 41.3949 27.8379 39.5062 29.4188C42.5609 30.8011 45.1895 32.9765 47.1187 35.7188C47.2907 35.9593 47.4132 36.2317 47.479 36.52C47.5447 36.8083 47.5526 37.1068 47.502 37.3981C47.4514 37.6895 47.3434 37.9679 47.1842 38.2171C47.0251 38.4664 46.818 38.6815 46.575 38.85Z" fill="#4CAF4F" stroke="#4CAF4F" stroke-width="2" mask="url(#path-1-inside-1_16_1460)"/>
</svg>
